0, 0, Header, 0, 1, 960
1, 0, Start_track
1, 0, Note_on_c, 0, 41, 96
1, 120, Note_off_c, 0, 41, 0
1, 120, Note_on_c, 0, 43, 96
1, 240, Note_off_c, 0, 43, 0
1, 240, Note_on_c, 0, 41, 96
1, 360, Note_off_c, 0, 41, 0
1, 360, Note_on_c, 0, 43, 96
1, 480, Note_off_c, 0, 43, 0
1, 480, Note_on_c, 0, 41, 96
1, 600, Note_off_c, 0, 41, 0
1, 600, Note_on_c, 0, 43, 96
1, 720, Note_off_c, 0, 43, 0
1, 720, Note_on_c, 0, 41, 96
1, 840, Note_off_c, 0, 41, 0
1, 840, Note_on_c, 0, 40, 96
1, 1080, Note_off_c, 0, 40, 0
1, 1320, Note_on_c, 0, 41, 98
1, 1440, Note_off_c, 0, 41, 0
1, 1440, Note_on_c, 0, 41, 98
1, 1560, Note_off_c, 0, 41, 0
1, 1560, Note_on_c, 0, 42, 98
1, 1680, Note_off_c, 0, 42, 0
1, 1680, Note_on_c, 0, 42, 98
1, 1800, Note_off_c, 0, 42, 0
1, 1800, Note_on_c, 0, 42, 98
1, 1920, Note_off_c, 0, 42, 0
1, 1920, Note_on_c, 0, 53, 98
1, 1920, Note_on_c, 0, 55, 98
1, 1920, Note_on_c, 0, 57, 98
1, 1920, Note_on_c, 0, 52, 98
1, 1920, Note_on_c, 0, 50, 98
1, 1920, Note_on_c, 0, 48, 98
1, 1920, Note_on_c, 0, 59, 98
1, 1920, Note_on_c, 0, 51, 98
1, 2040, Note_off_c, 0, 53, 0
1, 2040, Note_off_c, 0, 55, 0
1, 2040, Note_off_c, 0, 57, 0
1, 2040, Note_off_c, 0, 52, 0
1, 2040, Note_off_c, 0, 50, 0
1, 2040, Note_off_c, 0, 48, 0
1, 2040, Note_off_c, 0, 59, 0
1, 2040, Note_off_c, 0, 51, 0
1, 4440, Note_on_c, 0, 43, 98
1, 4560, Note_off_c, 0, 43, 0
1, 4560, Note_on_c, 0, 43, 98
1, 4680, Note_off_c, 0, 43, 0
1, 4680, Note_on_c, 0, 43, 98
1, 4800, Note_off_c, 0, 43, 0
1, 4800, Note_on_c, 0, 53, 98
1, 4800, Note_on_c, 0, 57, 98
1, 4800, Note_on_c, 0, 52, 98
1, 4800, Note_on_c, 0, 50, 98
1, 4800, Note_on_c, 0, 48, 98
1, 4800, Note_on_c, 0, 59, 98
1, 4800, Note_on_c, 0, 54, 98
1, 4800, Note_on_c, 0, 51, 98
1, 4920, Note_off_c, 0, 53, 0
1, 4920, Note_off_c, 0, 57, 0
1, 4920, Note_off_c, 0, 52, 0
1, 4920, Note_off_c, 0, 50, 0
1, 4920, Note_off_c, 0, 48, 0
1, 4920, Note_off_c, 0, 59, 0
1, 4920, Note_off_c, 0, 54, 0
1, 4920, Note_off_c, 0, 51, 0
1, 4920, Note_on_c, 0, 43, 98
1, 5040, Note_off_c, 0, 43, 0
1, 5040, Note_on_c, 0, 43, 98
1, 5160, Note_off_c, 0, 43, 0
1, 5160, Note_on_c, 0, 43, 98
1, 5280, Note_off_c, 0, 43, 0
1, 5760, Note_on_c, 0, 38, 96
1, 5880, Note_off_c, 0, 38, 0
1, 5880, Note_on_c, 0, 40, 96
1, 6000, Note_off_c, 0, 40, 0
1, 6000, Note_on_c, 0, 41, 96
1, 6120, Note_off_c, 0, 41, 0
1, 6120, Note_on_c, 0, 43, 96
1, 6240, Note_off_c, 0, 43, 0
1, 6240, Note_on_c, 0, 45, 96
1, 6360, Note_off_c, 0, 45, 0
1, 6720, Note_on_c, 0, 41, 96
1, 6840, Note_off_c, 0, 41, 0
1, 6840, Note_on_c, 0, 43, 96
1, 6960, Note_off_c, 0, 43, 0
1, 6960, Note_on_c, 0, 41, 96
1, 7080, Note_off_c, 0, 41, 0
1, 7080, Note_on_c, 0, 43, 96
1, 7200, Note_off_c, 0, 43, 0
1, 7200, Note_on_c, 0, 41, 96
1, 7320, Note_off_c, 0, 41, 0
1, 7320, Note_on_c, 0, 43, 96
1, 7440, Note_off_c, 0, 43, 0
1, 7440, Note_on_c, 0, 41, 96
1, 7560, Note_off_c, 0, 41, 0
1, 7560, Note_on_c, 0, 40, 96
1, 7800, Note_off_c, 0, 40, 0
1, 8520, Note_on_c, 0, 41, 98
1, 8640, Note_off_c, 0, 41, 0
1, 8640, Note_on_c, 0, 41, 98
1, 8760, Note_off_c, 0, 41, 0
1, 8760, Note_on_c, 0, 42, 98
1, 8880, Note_off_c, 0, 42, 0
1, 8880, Note_on_c, 0, 42, 98
1, 9000, Note_off_c, 0, 42, 0
1, 9000, Note_on_c, 0, 42, 98
1, 9120, Note_off_c, 0, 42, 0
1, 9120, Note_on_c, 0, 53, 98
1, 9120, Note_on_c, 0, 55, 98
1, 9120, Note_on_c, 0, 57, 98
1, 9120, Note_on_c, 0, 52, 98
1, 9120, Note_on_c, 0, 50, 98
1, 9120, Note_on_c, 0, 48, 98
1, 9120, Note_on_c, 0, 59, 98
1, 9120, Note_on_c, 0, 51, 98
1, 9240, Note_off_c, 0, 53, 0
1, 9240, Note_off_c, 0, 55, 0
1, 9240, Note_off_c, 0, 57, 0
1, 9240, Note_off_c, 0, 52, 0
1, 9240, Note_off_c, 0, 50, 0
1, 9240, Note_off_c, 0, 48, 0
1, 9240, Note_off_c, 0, 59, 0
1, 9240, Note_off_c, 0, 51, 0
1, 9240, Note_on_c, 0, 42, 98
1, 9360, Note_off_c, 0, 42, 0
1, 9360, Note_on_c, 0, 42, 98
1, 9480, Note_off_c, 0, 42, 0
1, 9480, Note_on_c, 0, 42, 98
1, 9600, Note_off_c, 0, 42, 0
1, 10680, Note_on_c, 0, 39, 98
1, 10800, Note_off_c, 0, 39, 0
1, 10800, Note_on_c, 0, 39, 98
1, 10920, Note_off_c, 0, 39, 0
1, 10920, Note_on_c, 0, 39, 98
1, 11040, Note_off_c, 0, 39, 0
1, 11040, Note_on_c, 0, 53, 98
1, 11040, Note_on_c, 0, 57, 98
1, 11040, Note_on_c, 0, 52, 98
1, 11040, Note_on_c, 0, 50, 98
1, 11040, Note_on_c, 0, 48, 98
1, 11040, Note_on_c, 0, 59, 98
1, 11040, Note_on_c, 0, 54, 98
1, 11040, Note_on_c, 0, 55, 98
1, 11160, Note_off_c, 0, 53, 0
1, 11160, Note_off_c, 0, 57, 0
1, 11160, Note_off_c, 0, 52, 0
1, 11160, Note_off_c, 0, 50, 0
1, 11160, Note_off_c, 0, 48, 0
1, 11160, Note_off_c, 0, 59, 0
1, 11160, Note_off_c, 0, 54, 0
1, 11160, Note_off_c, 0, 55, 0
1, 11160, Note_on_c, 0, 39, 98
1, 11280, Note_off_c, 0, 39, 0
1, 11280, Note_on_c, 0, 39, 98
1, 11400, Note_off_c, 0, 39, 0
1, 11400, Note_on_c, 0, 39, 98
1, 11520, Note_off_c, 0, 39, 0
1, 11640, Note_on_c, 0, 43, 98
1, 11760, Note_off_c, 0, 43, 0
1, 11760, Note_on_c, 0, 43, 98
1, 11880, Note_off_c, 0, 43, 0
1, 11880, Note_on_c, 0, 43, 98
1, 12000, Note_off_c, 0, 43, 0
1, 12480, Note_on_c, 0, 41, 98
1, 12600, Note_off_c, 0, 41, 0
1, 12600, Note_on_c, 0, 41, 98
1, 12720, Note_off_c, 0, 41, 0
1, 12720, Note_on_c, 0, 41, 98
1, 12840, Note_off_c, 0, 41, 0
1, 13440, Note_on_c, 0, 41, 96
1, 13560, Note_off_c, 0, 41, 0
1, 13560, Note_on_c, 0, 43, 96
1, 13680, Note_off_c, 0, 43, 0
1, 13680, Note_on_c, 0, 41, 96
1, 13800, Note_off_c, 0, 41, 0
1, 13800, Note_on_c, 0, 43, 96
1, 13920, Note_off_c, 0, 43, 0
1, 13920, Note_on_c, 0, 41, 96
1, 14040, Note_off_c, 0, 41, 0
1, 14040, Note_on_c, 0, 43, 96
1, 14160, Note_off_c, 0, 43, 0
1, 14160, Note_on_c, 0, 41, 96
1, 14280, Note_off_c, 0, 41, 0
1, 14280, Note_on_c, 0, 40, 96
1, 14520, Note_off_c, 0, 40, 0
1, 14640, Note_on_c, 0, 41, 98
1, 14760, Note_off_c, 0, 41, 0
1, 14760, Note_on_c, 0, 41, 98
1, 14880, Note_off_c, 0, 41, 0
1, 14880, Note_on_c, 0, 42, 98
1, 15000, Note_off_c, 0, 42, 0
1, 15000, Note_on_c, 0, 42, 98
1, 15120, Note_off_c, 0, 42, 0
1, 15120, Note_on_c, 0, 42, 98
1, 15240, Note_off_c, 0, 42, 0
1, 15240, Note_on_c, 0, 53, 98
1, 15240, Note_on_c, 0, 55, 98
1, 15240, Note_on_c, 0, 57, 98
1, 15240, Note_on_c, 0, 52, 98
1, 15240, Note_on_c, 0, 50, 98
1, 15240, Note_on_c, 0, 48, 98
1, 15240, Note_on_c, 0, 59, 98
1, 15240, Note_on_c, 0, 51, 98
1, 15360, Note_off_c, 0, 53, 0
1, 15360, Note_off_c, 0, 55, 0
1, 15360, Note_off_c, 0, 57, 0
1, 15360, Note_off_c, 0, 52, 0
1, 15360, Note_off_c, 0, 50, 0
1, 15360, Note_off_c, 0, 48, 0
1, 15360, Note_off_c, 0, 59, 0
1, 15360, Note_off_c, 0, 51, 0
1, 15360, Note_on_c, 0, 42, 98
1, 15480, Note_off_c, 0, 42, 0
1, 15480, Note_on_c, 0, 42, 98
1, 15600, Note_off_c, 0, 42, 0
1, 15600, Note_on_c, 0, 42, 98
1, 15720, Note_off_c, 0, 42, 0
1, 17760, Note_on_c, 0, 43, 98
1, 17880, Note_off_c, 0, 43, 0
1, 17880, Note_on_c, 0, 43, 98
1, 18000, Note_off_c, 0, 43, 0
1, 18000, Note_on_c, 0, 43, 98
1, 18120, Note_off_c, 0, 43, 0
1, 18120, Note_on_c, 0, 53, 98
1, 18120, Note_on_c, 0, 57, 98
1, 18120, Note_on_c, 0, 52, 98
1, 18120, Note_on_c, 0, 50, 98
1, 18120, Note_on_c, 0, 48, 98
1, 18120, Note_on_c, 0, 59, 98
1, 18120, Note_on_c, 0, 54, 98
1, 18120, Note_on_c, 0, 51, 98
1, 18240, Note_off_c, 0, 53, 0
1, 18240, Note_off_c, 0, 57, 0
1, 18240, Note_off_c, 0, 52, 0
1, 18240, Note_off_c, 0, 50, 0
1, 18240, Note_off_c, 0, 48, 0
1, 18240, Note_off_c, 0, 59, 0
1, 18240, Note_off_c, 0, 54, 0
1, 18240, Note_off_c, 0, 51, 0
1, 18240, Note_on_c, 0, 43, 98
1, 18360, Note_off_c, 0, 43, 0
1, 18360, Note_on_c, 0, 43, 98
1, 18480, Note_off_c, 0, 43, 0
1, 18480, Note_on_c, 0, 43, 98
1, 18600, Note_off_c, 0, 43, 0
1, 18600, Note_on_c, 0, 41, 98
1, 18720, Note_off_c, 0, 41, 0
1, 18720, Note_on_c, 0, 41, 98
1, 18840, Note_off_c, 0, 41, 0
1, 18840, Note_on_c, 0, 41, 98
1, 18960, Note_off_c, 0, 41, 0
1, 18960, Note_on_c, 0, 38, 96
1, 19080, Note_off_c, 0, 38, 0
1, 19080, Note_on_c, 0, 40, 96
1, 19200, Note_off_c, 0, 40, 0
1, 19200, Note_on_c, 0, 41, 96
1, 19320, Note_off_c, 0, 41, 0
1, 19320, Note_on_c, 0, 43, 96
1, 19440, Note_off_c, 0, 43, 0
1, 19440, Note_on_c, 0, 45, 96
1, 19560, Note_off_c, 0, 45, 0
1, 19920, Note_on_c, 0, 41, 96
1, 20040, Note_off_c, 0, 41, 0
1, 20040, Note_on_c, 0, 43, 96
1, 20160, Note_off_c, 0, 43, 0
1, 20160, Note_on_c, 0, 41, 96
1, 20280, Note_off_c, 0, 41, 0
1, 20280, Note_on_c, 0, 43, 96
1, 20400, Note_off_c, 0, 43, 0
1, 20400, Note_on_c, 0, 41, 96
1, 20520, Note_off_c, 0, 41, 0
1, 20520, Note_on_c, 0, 43, 96
1, 20640, Note_off_c, 0, 43, 0
1, 20640, Note_on_c, 0, 41, 96
1, 20760, Note_off_c, 0, 41, 0
1, 20760, Note_on_c, 0, 40, 96
1, 21000, Note_off_c, 0, 40, 0
1, 21360, Note_on_c, 0, 41, 98
1, 21480, Note_off_c, 0, 41, 0
1, 21480, Note_on_c, 0, 41, 98
1, 21600, Note_off_c, 0, 41, 0
1, 21600, Note_on_c, 0, 42, 98
1, 21720, Note_off_c, 0, 42, 0
1, 21720, Note_on_c, 0, 42, 98
1, 21840, Note_off_c, 0, 42, 0
1, 21840, Note_on_c, 0, 42, 98
1, 21960, Note_off_c, 0, 42, 0
1, 22080, Note_on_c, 0, 42, 98
1, 22200, Note_off_c, 0, 42, 0
1, 22200, Note_on_c, 0, 42, 98
1, 22320, Note_off_c, 0, 42, 0
1, 22320, Note_on_c, 0, 42, 98
1, 22440, Note_off_c, 0, 42, 0
1, 22560, Note_on_c, 0, 40, 98
1, 22680, Note_off_c, 0, 40, 0
1, 22680, Note_on_c, 0, 40, 98
1, 22800, Note_off_c, 0, 40, 0
1, 22800, Note_on_c, 0, 40, 98
1, 22920, Note_off_c, 0, 40, 0
1, 22920, Note_on_c, 0, 53, 98
1, 22920, Note_on_c, 0, 55, 98
1, 22920, Note_on_c, 0, 57, 98
1, 22920, Note_on_c, 0, 50, 98
1, 22920, Note_on_c, 0, 48, 98
1, 22920, Note_on_c, 0, 59, 98
1, 22920, Note_on_c, 0, 54, 98
1, 22920, Note_on_c, 0, 51, 98
1, 23040, Note_off_c, 0, 53, 0
1, 23040, Note_off_c, 0, 55, 0
1, 23040, Note_off_c, 0, 57, 0
1, 23040, Note_off_c, 0, 50, 0
1, 23040, Note_off_c, 0, 48, 0
1, 23040, Note_off_c, 0, 59, 0
1, 23040, Note_off_c, 0, 54, 0
1, 23040, Note_off_c, 0, 51, 0
1, 23040, Note_on_c, 0, 40, 98
1, 23160, Note_off_c, 0, 40, 0
1, 23160, Note_on_c, 0, 40, 98
1, 23280, Note_off_c, 0, 40, 0
1, 23280, Note_on_c, 0, 40, 98
1, 23400, Note_off_c, 0, 40, 0
1, 24480, Note_on_c, 0, 43, 98
1, 24600, Note_off_c, 0, 43, 0
1, 24600, Note_on_c, 0, 43, 98
1, 24720, Note_off_c, 0, 43, 0
1, 24720, Note_on_c, 0, 43, 98
1, 24840, Note_off_c, 0, 43, 0
1, 24840, Note_on_c, 0, 53, 98
1, 24840, Note_on_c, 0, 57, 98
1, 24840, Note_on_c, 0, 52, 98
1, 24840, Note_on_c, 0, 50, 98
1, 24840, Note_on_c, 0, 48, 98
1, 24840, Note_on_c, 0, 59, 98
1, 24840, Note_on_c, 0, 54, 98
1, 24840, Note_on_c, 0, 51, 98
1, 24960, Note_off_c, 0, 53, 0
1, 24960, Note_off_c, 0, 57, 0
1, 24960, Note_off_c, 0, 52, 0
1, 24960, Note_off_c, 0, 50, 0
1, 24960, Note_off_c, 0, 48, 0
1, 24960, Note_off_c, 0, 59, 0
1, 24960, Note_off_c, 0, 54, 0
1, 24960, Note_off_c, 0, 51, 0
1, 25320, Note_on_c, 0, 41, 98
1, 25440, Note_off_c, 0, 41, 0
1, 25440, Note_on_c, 0, 41, 98
1, 25560, Note_off_c, 0, 41, 0
1, 25560, Note_on_c, 0, 41, 98
1, 25680, Note_off_c, 0, 41, 0
1, 25680, Note_on_c, 0, 43, 96
1, 25809, Note_off_c, 0, 43, 0
1, 25920, Note_on_c, 0, 43, 96
1, 26040, Note_off_c, 0, 43, 0
1, 26160, Note_on_c, 0, 43, 96
1, 26280, Note_off_c, 0, 43, 0
1, 26400, Note_on_c, 0, 43, 96
1, 26520, Note_off_c, 0, 43, 0
1, 26640, Note_on_c, 0, 43, 96
1, 26760, Note_off_c, 0, 43, 0
1, 26880, Note_on_c, 0, 41, 96
1, 27000, Note_off_c, 0, 41, 0
1, 27000, Note_on_c, 0, 43, 96
1, 27120, Note_off_c, 0, 43, 0
1, 27120, Note_on_c, 0, 41, 96
1, 27240, Note_off_c, 0, 41, 0
1, 27240, Note_on_c, 0, 43, 96
1, 27360, Note_off_c, 0, 43, 0
1, 27360, Note_on_c, 0, 41, 96
1, 27480, Note_off_c, 0, 41, 0
1, 27480, Note_on_c, 0, 43, 96
1, 27600, Note_off_c, 0, 43, 0
1, 27600, Note_on_c, 0, 41, 96
1, 27720, Note_off_c, 0, 41, 0
1, 27720, Note_on_c, 0, 40, 96
1, 27960, Note_off_c, 0, 40, 0
1, 28320, Note_on_c, 0, 55, 98
1, 28320, Note_on_c, 0, 53, 98
1, 28320, Note_on_c, 0, 52, 98
1, 28320, Note_on_c, 0, 50, 98
1, 28320, Note_on_c, 0, 48, 98
1, 28320, Note_on_c, 0, 54, 98
1, 28320, Note_on_c, 0, 47, 98
1, 28320, Note_on_c, 0, 45, 98
1, 28320, Note_on_c, 0, 39, 98
1, 28440, Note_off_c, 0, 55, 0
1, 28440, Note_off_c, 0, 53, 0
1, 28440, Note_off_c, 0, 52, 0
1, 28440, Note_off_c, 0, 50, 0
1, 28440, Note_off_c, 0, 48, 0
1, 28440, Note_off_c, 0, 54, 0
1, 28440, Note_off_c, 0, 47, 0
1, 28440, Note_off_c, 0, 45, 0
1, 28440, Note_off_c, 0, 39, 0
1, 28440, Note_on_c, 0, 45, 98
1, 28560, Note_off_c, 0, 45, 0
1, 28560, Note_on_c, 0, 45, 98
1, 28680, Note_off_c, 0, 45, 0
1, 29280, Note_on_c, 0, 47, 98
1, 29280, Note_on_c, 0, 45, 98
1, 29280, Note_on_c, 0, 39, 98
1, 29280, Note_on_c, 0, 55, 98
1, 29280, Note_on_c, 0, 53, 98
1, 29280, Note_on_c, 0, 52, 98
1, 29280, Note_on_c, 0, 50, 98
1, 29280, Note_on_c, 0, 48, 98
1, 29280, Note_on_c, 0, 54, 98
1, 29400, Note_off_c, 0, 47, 0
1, 29400, Note_off_c, 0, 45, 0
1, 29400, Note_off_c, 0, 39, 0
1, 29400, Note_off_c, 0, 55, 0
1, 29400, Note_off_c, 0, 53, 0
1, 29400, Note_off_c, 0, 52, 0
1, 29400, Note_off_c, 0, 50, 0
1, 29400, Note_off_c, 0, 48, 0
1, 29400, Note_off_c, 0, 54, 0
1, 29400, Note_on_c, 0, 47, 98
1, 29520, Note_off_c, 0, 47, 0
1, 29520, Note_on_c, 0, 47, 98
1, 29640, Note_off_c, 0, 47, 0
1, 29760, Note_on_c, 0, 36, 98
1, 29760, Note_on_c, 0, 38, 98
1, 29760, Note_on_c, 0, 42, 98
1, 29880, Note_off_c, 0, 36, 0
1, 29880, Note_off_c, 0, 38, 0
1, 29880, Note_off_c, 0, 42, 0
1, 29880, Note_on_c, 0, 36, 98
1, 30000, Note_off_c, 0, 36, 0
1, 30000, Note_on_c, 0, 36, 98
1, 30120, Note_off_c, 0, 36, 0
1, 30360, Note_on_c, 0, 41, 96
1, 30480, Note_off_c, 0, 41, 0
1, 30480, Note_on_c, 0, 43, 96
1, 30600, Note_off_c, 0, 43, 0
1, 30600, Note_on_c, 0, 41, 96
1, 30720, Note_off_c, 0, 41, 0
1, 30720, Note_on_c, 0, 43, 96
1, 30840, Note_off_c, 0, 43, 0
1, 30840, Note_on_c, 0, 41, 96
1, 30960, Note_off_c, 0, 41, 0
1, 30960, Note_on_c, 0, 43, 96
1, 31080, Note_off_c, 0, 43, 0
1, 31080, Note_on_c, 0, 41, 96
1, 31200, Note_off_c, 0, 41, 0
1, 31200, Note_on_c, 0, 40, 96
1, 31440, Note_off_c, 0, 40, 0
1, 31680, Note_on_c, 0, 47, 98
1, 31800, Note_off_c, 0, 47, 0
1, 32160, Note_on_c, 0, 55, 98
1, 32160, Note_on_c, 0, 53, 98
1, 32160, Note_on_c, 0, 57, 98
1, 32160, Note_on_c, 0, 52, 98
1, 32160, Note_on_c, 0, 51, 98
1, 32160, Note_on_c, 0, 59, 98
1, 32280, Note_off_c, 0, 55, 0
1, 32280, Note_off_c, 0, 53, 0
1, 32280, Note_off_c, 0, 57, 0
1, 32280, Note_off_c, 0, 52, 0
1, 32280, Note_off_c, 0, 51, 0
1, 32280, Note_off_c, 0, 59, 0
1, 32640, Note_on_c, 0, 47, 98
1, 32640, Note_on_c, 0, 55, 98
1, 32640, Note_on_c, 0, 53, 98
1, 32640, Note_on_c, 0, 52, 98
1, 32640, Note_on_c, 0, 50, 98
1, 32640, Note_on_c, 0, 48, 98
1, 32640, Note_on_c, 0, 54, 98
1, 32760, Note_off_c, 0, 47, 0
1, 32760, Note_off_c, 0, 55, 0
1, 32760, Note_off_c, 0, 53, 0
1, 32760, Note_off_c, 0, 52, 0
1, 32760, Note_off_c, 0, 50, 0
1, 32760, Note_off_c, 0, 48, 0
1, 32760, Note_off_c, 0, 54, 0
1, 33120, Note_on_c, 0, 36, 98
1, 33120, Note_on_c, 0, 38, 98
1, 33120, Note_on_c, 0, 42, 98
1, 33240, Note_off_c, 0, 36, 0
1, 33240, Note_off_c, 0, 38, 0
1, 33240, Note_off_c, 0, 42, 0
1, 33240, Note_on_c, 0, 42, 103
1, 33360, Note_off_c, 0, 42, 0
1, 33360, Note_on_c, 0, 42, 101
1, 33480, Note_off_c, 0, 42, 0
1, 33720, Note_on_c, 0, 41, 96
1, 33840, Note_off_c, 0, 41, 0
1, 33840, Note_on_c, 0, 43, 96
1, 33960, Note_off_c, 0, 43, 0
1, 33960, Note_on_c, 0, 41, 96
1, 34080, Note_off_c, 0, 41, 0
1, 34080, Note_on_c, 0, 43, 96
1, 34200, Note_off_c, 0, 43, 0
1, 34200, Note_on_c, 0, 41, 96
1, 34320, Note_off_c, 0, 41, 0
1, 34320, Note_on_c, 0, 43, 96
1, 34440, Note_off_c, 0, 43, 0
1, 34440, Note_on_c, 0, 41, 96
1, 34560, Note_off_c, 0, 41, 0
1, 34560, Note_on_c, 0, 40, 96
1, 34800, Note_off_c, 0, 40, 0
1, 36960, Note_on_c, 0, 41, 96
1, 37080, Note_off_c, 0, 41, 0
1, 37080, Note_on_c, 0, 43, 96
1, 37200, Note_off_c, 0, 43, 0
1, 37200, Note_on_c, 0, 41, 96
1, 37320, Note_off_c, 0, 41, 0
1, 37320, Note_on_c, 0, 43, 96
1, 37440, Note_off_c, 0, 43, 0
1, 37440, Note_on_c, 0, 41, 96
1, 37560, Note_off_c, 0, 41, 0
1, 37560, Note_on_c, 0, 43, 96
1, 37680, Note_off_c, 0, 43, 0
1, 37680, Note_on_c, 0, 41, 96
1, 37800, Note_off_c, 0, 41, 0
1, 37920, Note_on_c, 0, 40, 96
1, 38040, Note_off_c, 0, 40, 0
1, 40200, Note_on_c, 0, 43, 96
1, 40320, Note_off_c, 0, 43, 0
1, 40440, Note_on_c, 0, 43, 96
1, 40560, Note_off_c, 0, 43, 0
1, 40680, Note_on_c, 0, 41, 96
1, 40800, Note_off_c, 0, 41, 0
1, 40800, Note_on_c, 0, 43, 96
1, 40920, Note_off_c, 0, 43, 0
1, 40920, Note_on_c, 0, 41, 96
1, 41040, Note_off_c, 0, 41, 0
1, 41040, Note_on_c, 0, 43, 96
1, 41160, Note_off_c, 0, 43, 0
1, 41160, Note_on_c, 0, 41, 96
1, 41280, Note_off_c, 0, 41, 0
1, 41280, Note_on_c, 0, 43, 96
1, 41400, Note_off_c, 0, 43, 0
1, 41400, Note_on_c, 0, 41, 96
1, 41520, Note_off_c, 0, 41, 0
1, 41640, Note_on_c, 0, 40, 96
1, 41760, Note_off_c, 0, 40, 0
1, 42360, Note_on_c, 0, 43, 96
1, 42480, Note_off_c, 0, 43, 0
1, 42540, Note_on_c, 0, 41, 96
1, 42660, Note_off_c, 0, 41, 0
1, 42780, Note_on_c, 0, 43, 96
1, 42900, Note_off_c, 0, 43, 0
1, 42960, Note_on_c, 0, 41, 96
1, 43080, Note_off_c, 0, 41, 0
1, 43200, Note_on_c, 0, 40, 96
1, 43320, Note_off_c, 0, 40, 0
1, 43320, Note_on_c, 0, 40, 96
1, 43440, Note_off_c, 0, 40, 0
1, 43440, Note_on_c, 0, 40, 96
1, 43560, Note_off_c, 0, 40, 0
1, 43980, Note_on_c, 0, 43, 96
1, 44100, Note_off_c, 0, 43, 0
1, 44160, Note_on_c, 0, 41, 96
1, 44280, Note_off_c, 0, 41, 0
1, 44400, Note_on_c, 0, 43, 96
1, 44520, Note_off_c, 0, 43, 0
1, 44580, Note_on_c, 0, 41, 96
1, 44700, Note_off_c, 0, 41, 0
1, 44820, Note_on_c, 0, 40, 96
1, 44940, Note_off_c, 0, 40, 0
1, 44940, Note_on_c, 0, 40, 96
1, 45060, Note_off_c, 0, 40, 0
1, 45060, Note_on_c, 0, 40, 96
1, 45180, Note_off_c, 0, 40, 0
1, 45720, Note_on_c, 0, 43, 96
1, 45840, Note_off_c, 0, 43, 0
1, 45900, Note_on_c, 0, 41, 96
1, 46020, Note_off_c, 0, 41, 0
1, 46140, Note_on_c, 0, 43, 96
1, 46260, Note_off_c, 0, 43, 0
1, 46320, Note_on_c, 0, 41, 96
1, 46440, Note_off_c, 0, 41, 0
1, 46560, Note_on_c, 0, 40, 96
1, 46680, Note_off_c, 0, 40, 0
1, 46680, Note_on_c, 0, 40, 96
1, 46800, Note_off_c, 0, 40, 0
1, 46800, Note_on_c, 0, 40, 96
1, 46920, Note_off_c, 0, 40, 0
1, 47400, Note_on_c, 0, 43, 96
1, 47520, Note_off_c, 0, 43, 0
1, 47580, Note_on_c, 0, 41, 96
1, 47700, Note_off_c, 0, 41, 0
1, 47820, Note_on_c, 0, 43, 96
1, 47940, Note_off_c, 0, 43, 0
1, 48000, Note_on_c, 0, 41, 96
1, 48120, Note_off_c, 0, 41, 0
1, 48240, Note_on_c, 0, 40, 96
1, 48360, Note_off_c, 0, 40, 0
1, 48360, Note_on_c, 0, 40, 96
1, 48480, Note_off_c, 0, 40, 0
1, 48480, Note_on_c, 0, 40, 96
1, 48600, Note_off_c, 0, 40, 0
1, 49080, Note_on_c, 0, 43, 96
1, 49200, Note_off_c, 0, 43, 0
1, 49260, Note_on_c, 0, 41, 96
1, 49380, Note_off_c, 0, 41, 0
1, 49500, Note_on_c, 0, 43, 96
1, 49620, Note_off_c, 0, 43, 0
1, 49680, Note_on_c, 0, 41, 96
1, 49800, Note_off_c, 0, 41, 0
1, 49920, Note_on_c, 0, 40, 96
1, 50040, Note_off_c, 0, 40, 0
1, 50040, Note_on_c, 0, 40, 96
1, 50160, Note_off_c, 0, 40, 0
1, 50160, Note_on_c, 0, 40, 96
1, 50280, Note_off_c, 0, 40, 0
1, 50760, Note_on_c, 0, 43, 96
1, 50880, Note_off_c, 0, 43, 0
1, 50940, Note_on_c, 0, 41, 96
1, 51060, Note_off_c, 0, 41, 0
1, 51180, Note_on_c, 0, 43, 96
1, 51300, Note_off_c, 0, 43, 0
1, 51360, Note_on_c, 0, 41, 96
1, 51480, Note_off_c, 0, 41, 0
1, 51600, Note_on_c, 0, 40, 96
1, 51720, Note_off_c, 0, 40, 0
1, 51720, Note_on_c, 0, 40, 96
1, 51840, Note_off_c, 0, 40, 0
1, 51840, Note_on_c, 0, 40, 96
1, 51960, Note_off_c, 0, 40, 0
1, 52440, Note_on_c, 0, 43, 96
1, 52560, Note_off_c, 0, 43, 0
1, 52620, Note_on_c, 0, 41, 96
1, 52740, Note_off_c, 0, 41, 0
1, 52860, Note_on_c, 0, 43, 96
1, 52980, Note_off_c, 0, 43, 0
1, 53040, Note_on_c, 0, 41, 96
1, 53160, Note_off_c, 0, 41, 0
1, 53280, Note_on_c, 0, 40, 96
1, 53400, Note_off_c, 0, 40, 0
1, 53400, Note_on_c, 0, 40, 96
1, 53520, Note_off_c, 0, 40, 0
1, 53520, Note_on_c, 0, 40, 96
1, 53640, Note_off_c, 0, 40, 0
1, 54120, Note_on_c, 0, 43, 96
1, 54240, Note_off_c, 0, 43, 0
1, 54300, Note_on_c, 0, 41, 96
1, 54420, Note_off_c, 0, 41, 0
1, 54540, Note_on_c, 0, 43, 96
1, 54660, Note_off_c, 0, 43, 0
1, 54720, Note_on_c, 0, 41, 96
1, 54840, Note_off_c, 0, 41, 0
1, 54900, Note_on_c, 0, 43, 96
1, 55020, Note_off_c, 0, 43, 0
1, 55080, Note_on_c, 0, 41, 96
1, 55200, Note_off_c, 0, 41, 0
1, 55320, Note_on_c, 0, 43, 96
1, 55440, Note_off_c, 0, 43, 0
1, 55500, Note_on_c, 0, 41, 96
1, 55620, Note_off_c, 0, 41, 0
1, 55740, Note_on_c, 0, 43, 96
1, 55860, Note_off_c, 0, 43, 0
1, 55920, Note_on_c, 0, 41, 96
1, 56040, Note_off_c, 0, 41, 0
1, 56160, Note_on_c, 0, 43, 96
1, 56280, Note_off_c, 0, 43, 0
1, 56340, Note_on_c, 0, 41, 96
1, 56460, Note_off_c, 0, 41, 0
1, 56520, Note_on_c, 0, 43, 96
1, 56640, Note_off_c, 0, 43, 0
1, 56700, Note_on_c, 0, 41, 96
1, 56820, Note_off_c, 0, 41, 0
1, 56940, Note_on_c, 0, 43, 96
1, 57060, Note_off_c, 0, 43, 0
1, 57120, Note_on_c, 0, 41, 96
1, 57240, Note_off_c, 0, 41, 0
1, 57300, Note_on_c, 0, 43, 96
1, 57420, Note_off_c, 0, 43, 0
1, 57480, Note_on_c, 0, 41, 96
1, 57600, Note_off_c, 0, 41, 0
1, 57720, Note_on_c, 0, 43, 96
1, 57840, Note_off_c, 0, 43, 0
1, 57900, Note_on_c, 0, 41, 96
1, 58020, Note_off_c, 0, 41, 0
1, 58080, Note_on_c, 0, 43, 96
1, 58200, Note_off_c, 0, 43, 0
1, 58260, Note_on_c, 0, 41, 96
1, 58380, Note_off_c, 0, 41, 0
1, 58500, Note_on_c, 0, 43, 96
1, 58620, Note_off_c, 0, 43, 0
1, 58680, Note_on_c, 0, 41, 96
1, 58800, Note_off_c, 0, 41, 0
1, 58920, Note_on_c, 0, 43, 96
1, 59040, Note_off_c, 0, 43, 0
1, 59100, Note_on_c, 0, 41, 96
1, 59220, Note_off_c, 0, 41, 0
1, 59340, Note_on_c, 0, 43, 96
1, 59460, Note_off_c, 0, 43, 0
1, 59520, Note_on_c, 0, 41, 96
1, 59640, Note_off_c, 0, 41, 0
1, 59700, Note_on_c, 0, 43, 96
1, 59820, Note_off_c, 0, 43, 0
1, 59880, Note_on_c, 0, 41, 96
1, 60000, Note_off_c, 0, 41, 0
1, 60120, Note_on_c, 0, 43, 96
1, 60240, Note_off_c, 0, 43, 0
1, 60300, Note_on_c, 0, 41, 96
1, 60420, Note_off_c, 0, 41, 0
1, 60540, Note_on_c, 0, 43, 96
1, 60660, Note_off_c, 0, 43, 0
1, 60720, Note_on_c, 0, 41, 96
1, 60840, Note_off_c, 0, 41, 0
1, 60960, Note_on_c, 0, 43, 96
1, 61080, Note_off_c, 0, 43, 0
1, 61140, Note_on_c, 0, 41, 96
1, 61260, Note_off_c, 0, 41, 0
1, 61320, Note_on_c, 0, 43, 96
1, 61440, Note_off_c, 0, 43, 0
1, 61500, Note_on_c, 0, 41, 96
1, 61620, Note_off_c, 0, 41, 0
1, 61740, Note_on_c, 0, 43, 96
1, 61860, Note_off_c, 0, 43, 0
1, 61920, Note_on_c, 0, 41, 96
1, 62040, Note_off_c, 0, 41, 0
1, 62160, Note_on_c, 0, 43, 96
1, 62280, Note_off_c, 0, 43, 0
1, 62340, Note_on_c, 0, 41, 96
1, 62460, Note_off_c, 0, 41, 0
1, 62580, Note_on_c, 0, 43, 96
1, 62700, Note_off_c, 0, 43, 0
1, 62760, Note_on_c, 0, 41, 96
1, 62880, Note_off_c, 0, 41, 0
1, 62940, Note_on_c, 0, 43, 96
1, 63060, Note_off_c, 0, 43, 0
1, 63120, Note_on_c, 0, 41, 96
1, 63240, Note_off_c, 0, 41, 0
1, 63360, Note_on_c, 0, 43, 96
1, 63480, Note_off_c, 0, 43, 0
1, 63540, Note_on_c, 0, 41, 96
1, 63660, Note_off_c, 0, 41, 0
1, 63720, Note_on_c, 0, 43, 96
1, 63840, Note_off_c, 0, 43, 0
1, 63900, Note_on_c, 0, 41, 96
1, 64020, Note_off_c, 0, 41, 0
1, 64140, Note_on_c, 0, 43, 96
1, 64260, Note_off_c, 0, 43, 0
1, 64320, Note_on_c, 0, 41, 96
1, 64440, Note_off_c, 0, 41, 0
1, 64500, Note_on_c, 0, 43, 96
1, 64620, Note_off_c, 0, 43, 0
1, 64680, Note_on_c, 0, 41, 96
1, 64800, Note_off_c, 0, 41, 0
1, 64920, Note_on_c, 0, 43, 96
1, 65040, Note_off_c, 0, 43, 0
1, 65100, Note_on_c, 0, 41, 96
1, 65220, Note_off_c, 0, 41, 0
1, 65340, Note_on_c, 0, 43, 96
1, 65460, Note_off_c, 0, 43, 0
1, 65520, Note_on_c, 0, 41, 96
1, 65640, Note_off_c, 0, 41, 0
1, 65760, Note_on_c, 0, 43, 96
1, 65880, Note_off_c, 0, 43, 0
1, 65940, Note_on_c, 0, 41, 96
1, 66060, Note_off_c, 0, 41, 0
1, 66120, Note_on_c, 0, 43, 96
1, 66240, Note_off_c, 0, 43, 0
1, 66300, Note_on_c, 0, 41, 96
1, 66420, Note_off_c, 0, 41, 0
1, 66540, Note_on_c, 0, 43, 96
1, 66660, Note_off_c, 0, 43, 0
1, 66720, Note_on_c, 0, 41, 96
1, 66840, Note_off_c, 0, 41, 0
1, 67200, Note_on_c, 0, 53, 96
1, 67200, Note_on_c, 0, 55, 96
1, 67200, Note_on_c, 0, 57, 96
1, 67200, Note_on_c, 0, 52, 96
1, 67200, Note_on_c, 0, 50, 96
1, 67200, Note_on_c, 0, 48, 96
1, 67200, Note_on_c, 0, 59, 96
1, 67200, Note_on_c, 0, 51, 96
1, 67320, Note_off_c, 0, 53, 0
1, 67320, Note_off_c, 0, 55, 0
1, 67320, Note_off_c, 0, 57, 0
1, 67320, Note_off_c, 0, 52, 0
1, 67320, Note_off_c, 0, 50, 0
1, 67320, Note_off_c, 0, 48, 0
1, 67320, Note_off_c, 0, 59, 0
1, 67320, Note_off_c, 0, 51, 0
1, 67680, Note_on_c, 0, 42, 96
1, 67800, Note_off_c, 0, 42, 0
1, 68160, Note_on_c, 0, 53, 96
1, 68160, Note_on_c, 0, 55, 96
1, 68160, Note_on_c, 0, 57, 96
1, 68160, Note_on_c, 0, 50, 96
1, 68160, Note_on_c, 0, 48, 96
1, 68160, Note_on_c, 0, 59, 96
1, 68160, Note_on_c, 0, 54, 96
1, 68160, Note_on_c, 0, 51, 96
1, 68280, Note_off_c, 0, 53, 0
1, 68280, Note_off_c, 0, 55, 0
1, 68280, Note_off_c, 0, 57, 0
1, 68280, Note_off_c, 0, 50, 0
1, 68280, Note_off_c, 0, 48, 0
1, 68280, Note_off_c, 0, 59, 0
1, 68280, Note_off_c, 0, 54, 0
1, 68280, Note_off_c, 0, 51, 0
1, 68640, Note_on_c, 0, 40, 96
1, 68760, Note_off_c, 0, 40, 0
1, 69120, Note_on_c, 0, 53, 96
1, 69120, Note_on_c, 0, 57, 96
1, 69120, Note_on_c, 0, 52, 96
1, 69120, Note_on_c, 0, 50, 96
1, 69120, Note_on_c, 0, 48, 96
1, 69120, Note_on_c, 0, 59, 96
1, 69120, Note_on_c, 0, 54, 96
1, 69240, Note_off_c, 0, 53, 0
1, 69240, Note_off_c, 0, 57, 0
1, 69240, Note_off_c, 0, 52, 0
1, 69240, Note_off_c, 0, 50, 0
1, 69240, Note_off_c, 0, 48, 0
1, 69240, Note_off_c, 0, 59, 0
1, 69240, Note_off_c, 0, 54, 0
1, 69600, Note_on_c, 0, 39, 96
1, 69720, Note_off_c, 0, 39, 0
1, 70080, Note_on_c, 0, 53, 96
1, 70080, Note_on_c, 0, 57, 96
1, 70080, Note_on_c, 0, 52, 96
1, 70080, Note_on_c, 0, 50, 96
1, 70080, Note_on_c, 0, 48, 96
1, 70080, Note_on_c, 0, 59, 96
1, 70080, Note_on_c, 0, 54, 96
1, 70080, Note_on_c, 0, 51, 96
1, 70200, Note_off_c, 0, 53, 0
1, 70200, Note_off_c, 0, 57, 0
1, 70200, Note_off_c, 0, 52, 0
1, 70200, Note_off_c, 0, 50, 0
1, 70200, Note_off_c, 0, 48, 0
1, 70200, Note_off_c, 0, 59, 0
1, 70200, Note_off_c, 0, 54, 0
1, 70200, Note_off_c, 0, 51, 0
1, 70560, Note_on_c, 0, 43, 96
1, 70680, Note_off_c, 0, 43, 0
1, 71100, Note_on_c, 0, 41, 96
1, 71220, Note_off_c, 0, 41, 0
1, 71340, Note_on_c, 0, 43, 96
1, 71460, Note_off_c, 0, 43, 0
1, 71520, Note_on_c, 0, 41, 96
1, 71640, Note_off_c, 0, 41, 0
1, 71700, Note_on_c, 0, 43, 96
1, 71820, Note_off_c, 0, 43, 0
1, 71940, Note_on_c, 0, 45, 96
1, 72060, Note_off_c, 0, 45, 0
1, 72180, Note_on_c, 0, 47, 96
1, 72300, Note_off_c, 0, 47, 0
1, 72360, Note_on_c, 0, 47, 96
1, 72480, Note_off_c, 0, 47, 0
1, 72600, Note_on_c, 0, 47, 96
1, 72720, Note_off_c, 0, 47, 0
1, 72780, Note_on_c, 0, 47, 96
1, 72900, Note_off_c, 0, 47, 0
1, 73020, Note_on_c, 0, 47, 96
1, 73140, Note_off_c, 0, 47, 0
1, 73200, Note_on_c, 0, 47, 96
1, 73320, Note_off_c, 0, 47, 0
1, 73380, Note_on_c, 0, 47, 96
1, 73500, Note_off_c, 0, 47, 0
1, 73560, Note_on_c, 0, 47, 96
1, 73680, Note_off_c, 0, 47, 0
1, 73800, Note_on_c, 0, 47, 96
1, 73920, Note_off_c, 0, 47, 0
1, 73980, Note_on_c, 0, 41, 96
1, 74100, Note_off_c, 0, 41, 0
1, 74220, Note_on_c, 0, 47, 96
1, 74340, Note_off_c, 0, 47, 0
1, 74340, Note_on_c, 0, 41, 96
1, 74460, Note_off_c, 0, 41, 0
1, 74520, Note_on_c, 0, 42, 96
1, 74640, Note_off_c, 0, 42, 0
1, 74700, Note_on_c, 0, 42, 96
1, 74820, Note_off_c, 0, 42, 0
1, 74880, Note_on_c, 0, 42, 96
1, 75000, Note_off_c, 0, 42, 0
1, 75060, Note_on_c, 0, 42, 96
1, 75180, Note_off_c, 0, 42, 0
1, 75240, Note_on_c, 0, 47, 96
1, 75360, Note_off_c, 0, 47, 0
1, 75420, Note_on_c, 0, 47, 96
1, 75540, Note_off_c, 0, 47, 0
1, 75660, Note_on_c, 0, 47, 96
1, 75780, Note_off_c, 0, 47, 0
1, 75840, Note_on_c, 0, 47, 96
1, 75960, Note_off_c, 0, 47, 0
1, 76080, Note_on_c, 0, 47, 96
1, 76200, Note_off_c, 0, 47, 0
1, 76260, Note_on_c, 0, 47, 96
1, 76380, Note_off_c, 0, 47, 0
1, 76500, Note_on_c, 0, 42, 96
1, 76620, Note_off_c, 0, 42, 0
1, 76680, Note_on_c, 0, 42, 96
1, 76800, Note_off_c, 0, 42, 0
1, 76920, Note_on_c, 0, 42, 96
1, 77040, Note_off_c, 0, 42, 0
1, 77280, Note_on_c, 0, 45, 96
1, 77400, Note_off_c, 0, 45, 0
1, 77520, Note_on_c, 0, 47, 96
1, 77640, Note_off_c, 0, 47, 0
1, 77700, Note_on_c, 0, 45, 96
1, 77820, Note_off_c, 0, 45, 0
1, 77880, Note_on_c, 0, 47, 96
1, 78000, Note_off_c, 0, 47, 0
1, 78060, Note_on_c, 0, 36, 96
1, 78180, Note_off_c, 0, 36, 0
1, 78300, Note_on_c, 0, 36, 96
1, 78420, Note_off_c, 0, 36, 0
1, 78480, Note_on_c, 0, 36, 96
1, 78600, Note_off_c, 0, 36, 0
1, 78720, Note_on_c, 0, 36, 96
1, 78840, Note_off_c, 0, 36, 0
1, 78900, Note_on_c, 0, 36, 96
1, 79020, Note_off_c, 0, 36, 0
1, 79080, Note_on_c, 0, 43, 96
1, 79200, Note_off_c, 0, 43, 0
1, 79260, Note_on_c, 0, 43, 96
1, 79380, Note_off_c, 0, 43, 0
1, 79440, Note_on_c, 0, 43, 96
1, 79560, Note_off_c, 0, 43, 0
1, 79620, Note_on_c, 0, 43, 96
1, 79740, Note_off_c, 0, 43, 0
1, 79920, Note_on_c, 0, 40, 96
1, 80040, Note_off_c, 0, 40, 0
1, 80100, Note_on_c, 0, 40, 96
1, 80220, Note_off_c, 0, 40, 0
1, 80340, Note_on_c, 0, 40, 96
1, 80460, Note_off_c, 0, 40, 0
1, 80520, Note_on_c, 0, 40, 96
1, 80640, Note_off_c, 0, 40, 0
1, 80760, Note_on_c, 0, 47, 96
1, 80880, Note_off_c, 0, 47, 0
1, 80940, Note_on_c, 0, 47, 96
1, 81060, Note_off_c, 0, 47, 0
1, 81120, Note_on_c, 0, 47, 96
1, 81240, Note_off_c, 0, 47, 0
1, 81300, Note_on_c, 0, 47, 96
1, 81420, Note_off_c, 0, 47, 0
1, 81480, Note_on_c, 0, 38, 96
1, 81600, Note_off_c, 0, 38, 0
1, 81660, Note_on_c, 0, 38, 96
1, 81780, Note_off_c, 0, 38, 0
1, 81900, Note_on_c, 0, 38, 96
1, 82020, Note_off_c, 0, 38, 0
1, 82080, Note_on_c, 0, 38, 96
1, 82200, Note_off_c, 0, 38, 0
1, 82320, Note_on_c, 0, 38, 96
1, 82440, Note_off_c, 0, 38, 0
1, 82560, Note_on_c, 0, 43, 96
1, 82680, Note_off_c, 0, 43, 0
1, 82740, Note_on_c, 0, 43, 96
1, 82860, Note_off_c, 0, 43, 0
1, 82920, Note_on_c, 0, 43, 96
1, 83040, Note_off_c, 0, 43, 0
1, 83160, Note_on_c, 0, 43, 96
1, 83280, Note_off_c, 0, 43, 0
1, 83520, Note_on_c, 0, 36, 96
1, 83640, Note_off_c, 0, 36, 0
1, 83760, Note_on_c, 0, 36, 96
1, 83880, Note_off_c, 0, 36, 0
1, 83940, Note_on_c, 0, 41, 96
1, 84060, Note_off_c, 0, 41, 0
1, 84120, Note_on_c, 0, 41, 96
1, 84240, Note_off_c, 0, 41, 0
1, 84300, Note_on_c, 0, 41, 96
1, 84420, Note_off_c, 0, 41, 0
1, 84540, Note_on_c, 0, 41, 96
1, 84660, Note_off_c, 0, 41, 0
1, 84720, Note_on_c, 0, 41, 96
1, 84840, Note_off_c, 0, 41, 0
1, 84960, Note_on_c, 0, 41, 96
1, 85080, Note_off_c, 0, 41, 0
1, 85140, Note_on_c, 0, 36, 96
1, 85260, Note_off_c, 0, 36, 0
1, 85380, Note_on_c, 0, 36, 96
1, 85500, Note_off_c, 0, 36, 0
1, 85560, Note_on_c, 0, 36, 96
1, 85680, Note_off_c, 0, 36, 0
1, 85740, Note_on_c, 0, 36, 96
1, 85860, Note_off_c, 0, 36, 0
1, 85920, Note_on_c, 0, 36, 96
1, 86040, Note_off_c, 0, 36, 0
1, 86280, Note_on_c, 0, 43, 96
1, 86400, Note_off_c, 0, 43, 0
1, 86460, Note_on_c, 0, 43, 96
1, 86580, Note_off_c, 0, 43, 0
1, 86700, Note_on_c, 0, 43, 96
1, 86820, Note_off_c, 0, 43, 0
1, 86880, Note_on_c, 0, 43, 96
1, 87000, Note_off_c, 0, 43, 0
1, 87120, Note_on_c, 0, 43, 96
1, 87240, Note_off_c, 0, 43, 0
1, 87300, Note_on_c, 0, 43, 96
1, 87420, Note_off_c, 0, 43, 0
1, 87480, Note_on_c, 0, 43, 96
1, 87600, Note_off_c, 0, 43, 0
1, 87660, Note_on_c, 0, 43, 96
1, 87780, Note_off_c, 0, 43, 0
1, 87780, Note_on_c, 0, 36, 96
1, 87900, Note_off_c, 0, 36, 0
1, 87960, Note_on_c, 0, 36, 96
1, 88080, Note_off_c, 0, 36, 0
1, 88200, Note_on_c, 0, 36, 96
1, 88320, Note_off_c, 0, 36, 0
1, 88380, Note_on_c, 0, 36, 96
1, 88500, Note_off_c, 0, 36, 0
1, 88620, Note_on_c, 0, 36, 96
1, 88740, Note_off_c, 0, 36, 0
1, 88800, Note_on_c, 0, 36, 96
1, 88920, Note_off_c, 0, 36, 0
1, 88980, Note_on_c, 0, 36, 96
1, 89100, Note_off_c, 0, 36, 0
1, 89160, Note_on_c, 0, 36, 96
1, 89280, Note_off_c, 0, 36, 0
1, 89400, Note_on_c, 0, 36, 96
1, 89520, Note_off_c, 0, 36, 0
1, 89880, Note_on_c, 0, 43, 96
1, 90000, Note_off_c, 0, 43, 0
1, 90060, Note_on_c, 0, 41, 96
1, 90180, Note_off_c, 0, 41, 0
1, 90240, Note_on_c, 0, 43, 96
1, 90360, Note_off_c, 0, 43, 0
1, 90480, Note_on_c, 0, 45, 96
1, 90600, Note_off_c, 0, 45, 0
1, 90720, Note_on_c, 0, 47, 96
1, 90840, Note_off_c, 0, 47, 0
1, 90900, Note_on_c, 0, 47, 96
1, 91020, Note_off_c, 0, 47, 0
1, 91140, Note_on_c, 0, 47, 96
1, 91260, Note_off_c, 0, 47, 0
1, 91320, Note_on_c, 0, 47, 96
1, 91440, Note_off_c, 0, 47, 0
1, 91560, Note_on_c, 0, 47, 96
1, 91680, Note_off_c, 0, 47, 0
1, 91740, Note_on_c, 0, 47, 96
1, 91860, Note_off_c, 0, 47, 0
1, 91920, Note_on_c, 0, 47, 96
1, 92040, Note_off_c, 0, 47, 0
1, 92100, Note_on_c, 0, 47, 96
1, 92220, Note_off_c, 0, 47, 0
1, 92340, Note_on_c, 0, 47, 96
1, 92460, Note_off_c, 0, 47, 0
1, 92520, Note_on_c, 0, 41, 96
1, 92640, Note_off_c, 0, 41, 0
1, 92760, Note_on_c, 0, 47, 96
1, 92880, Note_off_c, 0, 47, 0
1, 92880, Note_on_c, 0, 41, 96
1, 93000, Note_off_c, 0, 41, 0
1, 93060, Note_on_c, 0, 42, 96
1, 93180, Note_off_c, 0, 42, 0
1, 93240, Note_on_c, 0, 42, 96
1, 93360, Note_off_c, 0, 42, 0
1, 93420, Note_on_c, 0, 42, 96
1, 93540, Note_off_c, 0, 42, 0
1, 93600, Note_on_c, 0, 42, 96
1, 93720, Note_off_c, 0, 42, 0
1, 93780, Note_on_c, 0, 47, 96
1, 93900, Note_off_c, 0, 47, 0
1, 93960, Note_on_c, 0, 47, 96
1, 94080, Note_off_c, 0, 47, 0
1, 94200, Note_on_c, 0, 47, 96
1, 94320, Note_off_c, 0, 47, 0
1, 94380, Note_on_c, 0, 47, 96
1, 94500, Note_off_c, 0, 47, 0
1, 94620, Note_on_c, 0, 47, 96
1, 94740, Note_off_c, 0, 47, 0
1, 94800, Note_on_c, 0, 47, 96
1, 94920, Note_off_c, 0, 47, 0
1, 95040, Note_on_c, 0, 42, 96
1, 95160, Note_off_c, 0, 42, 0
1, 95220, Note_on_c, 0, 42, 96
1, 95340, Note_off_c, 0, 42, 0
1, 95460, Note_on_c, 0, 42, 96
1, 95580, Note_off_c, 0, 42, 0
1, 95820, Note_on_c, 0, 45, 96
1, 95940, Note_off_c, 0, 45, 0
1, 96060, Note_on_c, 0, 47, 96
1, 96180, Note_off_c, 0, 47, 0
1, 96240, Note_on_c, 0, 45, 96
1, 96360, Note_off_c, 0, 45, 0
1, 96420, Note_on_c, 0, 47, 96
1, 96540, Note_off_c, 0, 47, 0
1, 96600, Note_on_c, 0, 36, 96
1, 96720, Note_off_c, 0, 36, 0
1, 96840, Note_on_c, 0, 36, 96
1, 96960, Note_off_c, 0, 36, 0
1, 97020, Note_on_c, 0, 36, 96
1, 97140, Note_off_c, 0, 36, 0
1, 97260, Note_on_c, 0, 36, 96
1, 97380, Note_off_c, 0, 36, 0
1, 97440, Note_on_c, 0, 36, 96
1, 97560, Note_off_c, 0, 36, 0
1, 97620, Note_on_c, 0, 43, 96
1, 97740, Note_off_c, 0, 43, 0
1, 97800, Note_on_c, 0, 43, 96
1, 97920, Note_off_c, 0, 43, 0
1, 97980, Note_on_c, 0, 43, 96
1, 98100, Note_off_c, 0, 43, 0
1, 98160, Note_on_c, 0, 43, 96
1, 98280, Note_off_c, 0, 43, 0
1, 98460, Note_on_c, 0, 40, 96
1, 98580, Note_off_c, 0, 40, 0
1, 98640, Note_on_c, 0, 40, 96
1, 98760, Note_off_c, 0, 40, 0
1, 98880, Note_on_c, 0, 40, 96
1, 99000, Note_off_c, 0, 40, 0
1, 99060, Note_on_c, 0, 40, 96
1, 99180, Note_off_c, 0, 40, 0
1, 99300, Note_on_c, 0, 47, 96
1, 99420, Note_off_c, 0, 47, 0
1, 99480, Note_on_c, 0, 47, 96
1, 99600, Note_off_c, 0, 47, 0
1, 99660, Note_on_c, 0, 47, 96
1, 99780, Note_off_c, 0, 47, 0
1, 99840, Note_on_c, 0, 47, 96
1, 99960, Note_off_c, 0, 47, 0
1, 100020, Note_on_c, 0, 38, 96
1, 100140, Note_off_c, 0, 38, 0
1, 100200, Note_on_c, 0, 38, 96
1, 100320, Note_off_c, 0, 38, 0
1, 100440, Note_on_c, 0, 38, 96
1, 100560, Note_off_c, 0, 38, 0
1, 100620, Note_on_c, 0, 38, 96
1, 100740, Note_off_c, 0, 38, 0
1, 100860, Note_on_c, 0, 38, 96
1, 100980, Note_off_c, 0, 38, 0
1, 101100, Note_on_c, 0, 43, 96
1, 101220, Note_off_c, 0, 43, 0
1, 101280, Note_on_c, 0, 43, 96
1, 101400, Note_off_c, 0, 43, 0
1, 101460, Note_on_c, 0, 43, 96
1, 101580, Note_off_c, 0, 43, 0
1, 101700, Note_on_c, 0, 43, 96
1, 101820, Note_off_c, 0, 43, 0
1, 102060, Note_on_c, 0, 36, 96
1, 102180, Note_off_c, 0, 36, 0
1, 102300, Note_on_c, 0, 36, 96
1, 102420, Note_off_c, 0, 36, 0
1, 102480, Note_on_c, 0, 41, 96
1, 102600, Note_off_c, 0, 41, 0
1, 102660, Note_on_c, 0, 41, 96
1, 102780, Note_off_c, 0, 41, 0
1, 102840, Note_on_c, 0, 41, 96
1, 102960, Note_off_c, 0, 41, 0
1, 103080, Note_on_c, 0, 41, 96
1, 103200, Note_off_c, 0, 41, 0
1, 103260, Note_on_c, 0, 41, 96
1, 103380, Note_off_c, 0, 41, 0
1, 103500, Note_on_c, 0, 41, 96
1, 103620, Note_off_c, 0, 41, 0
1, 103680, Note_on_c, 0, 36, 96
1, 103800, Note_off_c, 0, 36, 0
1, 103920, Note_on_c, 0, 36, 96
1, 104040, Note_off_c, 0, 36, 0
1, 104100, Note_on_c, 0, 36, 96
1, 104220, Note_off_c, 0, 36, 0
1, 104280, Note_on_c, 0, 36, 96
1, 104400, Note_off_c, 0, 36, 0
1, 104460, Note_on_c, 0, 36, 96
1, 104580, Note_off_c, 0, 36, 0
1, 104820, Note_on_c, 0, 43, 96
1, 104940, Note_off_c, 0, 43, 0
1, 105000, Note_on_c, 0, 43, 96
1, 105120, Note_off_c, 0, 43, 0
1, 105240, Note_on_c, 0, 43, 96
1, 105360, Note_off_c, 0, 43, 0
1, 105420, Note_on_c, 0, 43, 96
1, 105540, Note_off_c, 0, 43, 0
1, 105660, Note_on_c, 0, 43, 96
1, 105780, Note_off_c, 0, 43, 0
1, 105840, Note_on_c, 0, 43, 96
1, 105960, Note_off_c, 0, 43, 0
1, 106020, Note_on_c, 0, 43, 96
1, 106140, Note_off_c, 0, 43, 0
1, 106200, Note_on_c, 0, 43, 96
1, 106320, Note_off_c, 0, 43, 0
1, 106320, Note_on_c, 0, 36, 96
1, 106440, Note_off_c, 0, 36, 0
1, 106500, Note_on_c, 0, 36, 96
1, 106620, Note_off_c, 0, 36, 0
1, 106740, Note_on_c, 0, 36, 96
1, 106860, Note_off_c, 0, 36, 0
1, 106920, Note_on_c, 0, 36, 96
1, 107040, Note_off_c, 0, 36, 0
1, 107160, Note_on_c, 0, 36, 96
1, 107280, Note_off_c, 0, 36, 0
1, 107340, Note_on_c, 0, 36, 96
1, 107460, Note_off_c, 0, 36, 0
1, 107520, Note_on_c, 0, 36, 96
1, 107640, Note_off_c, 0, 36, 0
1, 107700, Note_on_c, 0, 36, 96
1, 107820, Note_off_c, 0, 36, 0
1, 107940, Note_on_c, 0, 36, 96
1, 108060, Note_off_c, 0, 36, 0
1, 108480, Note_on_c, 0, 42, 96
1, 108600, Note_off_c, 0, 42, 0
1, 108660, Note_on_c, 0, 42, 96
1, 108780, Note_off_c, 0, 42, 0
1, 108840, Note_on_c, 0, 47, 96
1, 108960, Note_off_c, 0, 47, 0
1, 109020, Note_on_c, 0, 47, 96
1, 109140, Note_off_c, 0, 47, 0
1, 109260, Note_on_c, 0, 47, 96
1, 109380, Note_off_c, 0, 47, 0
1, 109440, Note_on_c, 0, 47, 96
1, 109560, Note_off_c, 0, 47, 0
1, 109680, Note_on_c, 0, 47, 96
1, 109800, Note_off_c, 0, 47, 0
1, 109860, Note_on_c, 0, 47, 96
1, 109980, Note_off_c, 0, 47, 0
1, 110100, Note_on_c, 0, 42, 96
1, 110220, Note_off_c, 0, 42, 0
1, 110280, Note_on_c, 0, 42, 96
1, 110400, Note_off_c, 0, 42, 0
1, 110520, Note_on_c, 0, 42, 96
1, 110640, Note_off_c, 0, 42, 0
1, 110880, Note_on_c, 0, 45, 96
1, 111000, Note_off_c, 0, 45, 0
1, 111120, Note_on_c, 0, 47, 96
1, 111240, Note_off_c, 0, 47, 0
1, 111300, Note_on_c, 0, 45, 96
1, 111420, Note_off_c, 0, 45, 0
1, 111480, Note_on_c, 0, 47, 96
1, 111600, Note_off_c, 0, 47, 0
1, 111660, Note_on_c, 0, 36, 96
1, 111780, Note_off_c, 0, 36, 0
1, 111900, Note_on_c, 0, 36, 96
1, 112020, Note_off_c, 0, 36, 0
1, 112080, Note_on_c, 0, 36, 96
1, 112200, Note_off_c, 0, 36, 0
1, 112320, Note_on_c, 0, 36, 96
1, 112440, Note_off_c, 0, 36, 0
1, 112500, Note_on_c, 0, 36, 96
1, 112620, Note_off_c, 0, 36, 0
1, 112680, Note_on_c, 0, 43, 96
1, 112800, Note_off_c, 0, 43, 0
1, 112860, Note_on_c, 0, 43, 96
1, 112980, Note_off_c, 0, 43, 0
1, 113040, Note_on_c, 0, 43, 96
1, 113160, Note_off_c, 0, 43, 0
1, 113220, Note_on_c, 0, 43, 96
1, 113340, Note_off_c, 0, 43, 0
1, 113520, Note_on_c, 0, 40, 96
1, 113640, Note_off_c, 0, 40, 0
1, 113700, Note_on_c, 0, 40, 96
1, 113820, Note_off_c, 0, 40, 0
1, 113940, Note_on_c, 0, 40, 96
1, 114060, Note_off_c, 0, 40, 0
1, 114120, Note_on_c, 0, 40, 96
1, 114240, Note_off_c, 0, 40, 0
1, 114360, Note_on_c, 0, 47, 96
1, 114480, Note_off_c, 0, 47, 0
1, 114540, Note_on_c, 0, 47, 96
1, 114660, Note_off_c, 0, 47, 0
1, 114720, Note_on_c, 0, 47, 96
1, 114840, Note_off_c, 0, 47, 0
1, 114900, Note_on_c, 0, 47, 96
1, 115020, Note_off_c, 0, 47, 0
1, 115080, Note_on_c, 0, 38, 96
1, 115200, Note_off_c, 0, 38, 0
1, 115260, Note_on_c, 0, 38, 96
1, 115380, Note_off_c, 0, 38, 0
1, 115500, Note_on_c, 0, 38, 96
1, 115620, Note_off_c, 0, 38, 0
1, 115680, Note_on_c, 0, 38, 96
1, 115800, Note_off_c, 0, 38, 0
1, 115920, Note_on_c, 0, 38, 96
1, 116040, Note_off_c, 0, 38, 0
1, 116160, Note_on_c, 0, 43, 96
1, 116280, Note_off_c, 0, 43, 0
1, 116340, Note_on_c, 0, 43, 96
1, 116460, Note_off_c, 0, 43, 0
1, 116520, Note_on_c, 0, 43, 96
1, 116640, Note_off_c, 0, 43, 0
1, 116760, Note_on_c, 0, 43, 96
1, 116880, Note_off_c, 0, 43, 0
1, 117120, Note_on_c, 0, 36, 96
1, 117240, Note_off_c, 0, 36, 0
1, 117360, Note_on_c, 0, 36, 96
1, 117480, Note_off_c, 0, 36, 0
1, 117540, Note_on_c, 0, 41, 96
1, 117660, Note_off_c, 0, 41, 0
1, 117720, Note_on_c, 0, 41, 96
1, 117840, Note_off_c, 0, 41, 0
1, 117900, Note_on_c, 0, 41, 96
1, 118020, Note_off_c, 0, 41, 0
1, 118140, Note_on_c, 0, 41, 96
1, 118260, Note_off_c, 0, 41, 0
1, 118320, Note_on_c, 0, 41, 96
1, 118440, Note_off_c, 0, 41, 0
1, 118560, Note_on_c, 0, 41, 96
1, 118680, Note_off_c, 0, 41, 0
1, 118740, Note_on_c, 0, 36, 96
1, 118860, Note_off_c, 0, 36, 0
1, 118980, Note_on_c, 0, 36, 96
1, 119100, Note_off_c, 0, 36, 0
1, 119160, Note_on_c, 0, 36, 96
1, 119280, Note_off_c, 0, 36, 0
1, 119340, Note_on_c, 0, 36, 96
1, 119460, Note_off_c, 0, 36, 0
1, 119520, Note_on_c, 0, 36, 96
1, 119640, Note_off_c, 0, 36, 0
1, 119880, Note_on_c, 0, 43, 96
1, 120000, Note_off_c, 0, 43, 0
1, 120060, Note_on_c, 0, 43, 96
1, 120180, Note_off_c, 0, 43, 0
1, 120300, Note_on_c, 0, 43, 96
1, 120420, Note_off_c, 0, 43, 0
1, 120480, Note_on_c, 0, 43, 96
1, 120600, Note_off_c, 0, 43, 0
1, 120720, Note_on_c, 0, 43, 96
1, 120840, Note_off_c, 0, 43, 0
1, 120900, Note_on_c, 0, 43, 96
1, 121020, Note_off_c, 0, 43, 0
1, 121080, Note_on_c, 0, 43, 96
1, 121200, Note_off_c, 0, 43, 0
1, 121260, Note_on_c, 0, 43, 96
1, 121380, Note_off_c, 0, 43, 0
1, 121380, Note_on_c, 0, 36, 96
1, 121500, Note_off_c, 0, 36, 0
1, 121560, Note_on_c, 0, 36, 96
1, 121680, Note_off_c, 0, 36, 0
1, 121800, Note_on_c, 0, 36, 96
1, 121920, Note_off_c, 0, 36, 0
1, 121980, Note_on_c, 0, 36, 96
1, 122100, Note_off_c, 0, 36, 0
1, 122220, Note_on_c, 0, 36, 96
1, 122340, Note_off_c, 0, 36, 0
1, 122400, Note_on_c, 0, 36, 96
1, 122520, Note_off_c, 0, 36, 0
1, 122580, Note_on_c, 0, 36, 96
1, 122700, Note_off_c, 0, 36, 0
1, 122760, Note_on_c, 0, 36, 96
1, 122880, Note_off_c, 0, 36, 0
1, 123000, Note_on_c, 0, 36, 96
1, 123120, Note_off_c, 0, 36, 0
1, 124020, Note_on_c, 0, 36, 96
1, 124140, Note_off_c, 0, 36, 0
1, 124260, Note_on_c, 0, 36, 96
1, 124380, Note_off_c, 0, 36, 0
1, 124440, Note_on_c, 0, 41, 96
1, 124560, Note_off_c, 0, 41, 0
1, 124620, Note_on_c, 0, 41, 96
1, 124740, Note_off_c, 0, 41, 0
1, 124800, Note_on_c, 0, 41, 96
1, 124920, Note_off_c, 0, 41, 0
1, 125040, Note_on_c, 0, 41, 96
1, 125160, Note_off_c, 0, 41, 0
1, 125220, Note_on_c, 0, 41, 96
1, 125340, Note_off_c, 0, 41, 0
1, 125460, Note_on_c, 0, 41, 96
1, 125580, Note_off_c, 0, 41, 0
1, 125640, Note_on_c, 0, 36, 96
1, 125760, Note_off_c, 0, 36, 0
1, 125880, Note_on_c, 0, 36, 96
1, 126000, Note_off_c, 0, 36, 0
1, 126060, Note_on_c, 0, 36, 96
1, 126180, Note_off_c, 0, 36, 0
1, 126240, Note_on_c, 0, 36, 96
1, 126360, Note_off_c, 0, 36, 0
1, 126420, Note_on_c, 0, 36, 96
1, 126540, Note_off_c, 0, 36, 0
1, 126780, Note_on_c, 0, 43, 96
1, 126900, Note_off_c, 0, 43, 0
1, 126960, Note_on_c, 0, 43, 96
1, 127080, Note_off_c, 0, 43, 0
1, 127200, Note_on_c, 0, 43, 96
1, 127320, Note_off_c, 0, 43, 0
1, 127380, Note_on_c, 0, 43, 96
1, 127500, Note_off_c, 0, 43, 0
1, 127620, Note_on_c, 0, 43, 96
1, 127740, Note_off_c, 0, 43, 0
1, 127800, Note_on_c, 0, 43, 96
1, 127920, Note_off_c, 0, 43, 0
1, 127980, Note_on_c, 0, 43, 96
1, 128100, Note_off_c, 0, 43, 0
1, 128160, Note_on_c, 0, 43, 96
1, 128280, Note_off_c, 0, 43, 0
1, 128280, Note_on_c, 0, 36, 96
1, 128400, Note_off_c, 0, 36, 0
1, 128460, Note_on_c, 0, 36, 96
1, 128580, Note_off_c, 0, 36, 0
1, 128700, Note_on_c, 0, 36, 96
1, 128820, Note_off_c, 0, 36, 0
1, 128880, Note_on_c, 0, 36, 96
1, 129000, Note_off_c, 0, 36, 0
1, 129120, Note_on_c, 0, 36, 96
1, 129240, Note_off_c, 0, 36, 0
1, 129300, Note_on_c, 0, 36, 96
1, 129420, Note_off_c, 0, 36, 0
1, 129480, Note_on_c, 0, 36, 96
1, 129600, Note_off_c, 0, 36, 0
1, 129660, Note_on_c, 0, 36, 96
1, 129780, Note_off_c, 0, 36, 0
1, 129900, Note_on_c, 0, 36, 96
1, 130020, Note_off_c, 0, 36, 0
1, 130440, Note_on_c, 0, 42, 96
1, 130560, Note_off_c, 0, 42, 0
1, 130620, Note_on_c, 0, 42, 96
1, 130740, Note_off_c, 0, 42, 0
1, 130800, Note_on_c, 0, 47, 96
1, 130920, Note_off_c, 0, 47, 0
1, 130980, Note_on_c, 0, 47, 96
1, 131100, Note_off_c, 0, 47, 0
1, 131220, Note_on_c, 0, 47, 96
1, 131340, Note_off_c, 0, 47, 0
1, 131400, Note_on_c, 0, 47, 96
1, 131520, Note_off_c, 0, 47, 0
1, 131640, Note_on_c, 0, 47, 96
1, 131760, Note_off_c, 0, 47, 0
1, 131820, Note_on_c, 0, 47, 96
1, 131940, Note_off_c, 0, 47, 0
1, 132060, Note_on_c, 0, 42, 96
1, 132180, Note_off_c, 0, 42, 0
1, 132240, Note_on_c, 0, 42, 96
1, 132360, Note_off_c, 0, 42, 0
1, 132480, Note_on_c, 0, 42, 96
1, 132600, Note_off_c, 0, 42, 0
1, 132840, Note_on_c, 0, 45, 96
1, 132960, Note_off_c, 0, 45, 0
1, 133080, Note_on_c, 0, 47, 96
1, 133200, Note_off_c, 0, 47, 0
1, 133260, Note_on_c, 0, 45, 96
1, 133380, Note_off_c, 0, 45, 0
1, 137520, Note_on_c, 0, 40, 96
1, 137640, Note_off_c, 0, 40, 0
1, 139800, Note_on_c, 0, 43, 96
1, 139920, Note_off_c, 0, 43, 0
1, 140040, Note_on_c, 0, 43, 96
1, 140160, Note_off_c, 0, 43, 0
1, 140280, Note_on_c, 0, 41, 96
1, 140400, Note_off_c, 0, 41, 0
1, 140400, Note_on_c, 0, 43, 96
1, 140520, Note_off_c, 0, 43, 0
1, 140520, Note_on_c, 0, 41, 96
1, 140640, Note_off_c, 0, 41, 0
1, 140640, Note_on_c, 0, 43, 96
1, 140760, Note_off_c, 0, 43, 0
1, 140760, Note_on_c, 0, 41, 96
1, 140880, Note_off_c, 0, 41, 0
1, 140880, Note_on_c, 0, 43, 96
1, 141000, Note_off_c, 0, 43, 0
1, 141000, Note_on_c, 0, 41, 96
1, 141120, Note_off_c, 0, 41, 0
1, 141240, Note_on_c, 0, 40, 96
1, 141360, Note_off_c, 0, 40, 0
1, 141960, Note_on_c, 0, 43, 96
1, 142080, Note_off_c, 0, 43, 0
1, 142140, Note_on_c, 0, 41, 96
1, 142260, Note_off_c, 0, 41, 0
1, 142380, Note_on_c, 0, 43, 96
1, 142500, Note_off_c, 0, 43, 0
1, 142560, Note_on_c, 0, 41, 96
1, 142680, Note_off_c, 0, 41, 0
1, 142800, Note_on_c, 0, 40, 96
1, 142920, Note_off_c, 0, 40, 0
1, 142920, Note_on_c, 0, 40, 96
1, 143040, Note_off_c, 0, 40, 0
1, 143040, Note_on_c, 0, 40, 96
1, 143160, Note_off_c, 0, 40, 0
1, 143580, Note_on_c, 0, 43, 96
1, 143700, Note_off_c, 0, 43, 0
1, 143760, Note_on_c, 0, 41, 96
1, 143880, Note_off_c, 0, 41, 0
1, 144000, Note_on_c, 0, 43, 96
1, 144120, Note_off_c, 0, 43, 0
1, 144180, Note_on_c, 0, 41, 96
1, 144300, Note_off_c, 0, 41, 0
1, 144420, Note_on_c, 0, 40, 96
1, 144540, Note_off_c, 0, 40, 0
1, 144540, Note_on_c, 0, 40, 96
1, 144660, Note_off_c, 0, 40, 0
1, 144660, Note_on_c, 0, 40, 96
1, 144780, Note_off_c, 0, 40, 0
1, 145320, Note_on_c, 0, 43, 96
1, 145440, Note_off_c, 0, 43, 0
1, 145500, Note_on_c, 0, 41, 96
1, 145620, Note_off_c, 0, 41, 0
1, 145740, Note_on_c, 0, 43, 96
1, 145860, Note_off_c, 0, 43, 0
1, 145920, Note_on_c, 0, 41, 96
1, 146040, Note_off_c, 0, 41, 0
1, 146160, Note_on_c, 0, 40, 96
1, 146280, Note_off_c, 0, 40, 0
1, 146280, Note_on_c, 0, 40, 96
1, 146400, Note_off_c, 0, 40, 0
1, 146400, Note_on_c, 0, 40, 96
1, 146520, Note_off_c, 0, 40, 0
1, 147000, Note_on_c, 0, 43, 96
1, 147120, Note_off_c, 0, 43, 0
1, 147180, Note_on_c, 0, 41, 96
1, 147300, Note_off_c, 0, 41, 0
1, 147420, Note_on_c, 0, 43, 96
1, 147540, Note_off_c, 0, 43, 0
1, 147600, Note_on_c, 0, 41, 96
1, 147720, Note_off_c, 0, 41, 0
1, 147840, Note_on_c, 0, 40, 96
1, 147960, Note_off_c, 0, 40, 0
1, 147960, Note_on_c, 0, 40, 96
1, 148080, Note_off_c, 0, 40, 0
1, 148080, Note_on_c, 0, 40, 96
1, 148200, Note_off_c, 0, 40, 0
1, 148680, Note_on_c, 0, 43, 96
1, 148800, Note_off_c, 0, 43, 0
1, 148860, Note_on_c, 0, 41, 96
1, 148980, Note_off_c, 0, 41, 0
1, 149100, Note_on_c, 0, 43, 96
1, 149220, Note_off_c, 0, 43, 0
1, 149280, Note_on_c, 0, 41, 96
1, 149400, Note_off_c, 0, 41, 0
1, 149520, Note_on_c, 0, 40, 96
1, 149640, Note_off_c, 0, 40, 0
1, 149640, Note_on_c, 0, 40, 96
1, 149760, Note_off_c, 0, 40, 0
1, 149760, Note_on_c, 0, 40, 96
1, 149880, Note_off_c, 0, 40, 0
1, 150360, Note_on_c, 0, 43, 96
1, 150480, Note_off_c, 0, 43, 0
1, 150540, Note_on_c, 0, 41, 96
1, 150660, Note_off_c, 0, 41, 0
1, 150780, Note_on_c, 0, 43, 96
1, 150900, Note_off_c, 0, 43, 0
1, 150960, Note_on_c, 0, 41, 96
1, 151080, Note_off_c, 0, 41, 0
1, 151200, Note_on_c, 0, 40, 96
1, 151320, Note_off_c, 0, 40, 0
1, 151320, Note_on_c, 0, 40, 96
1, 151440, Note_off_c, 0, 40, 0
1, 151440, Note_on_c, 0, 40, 96
1, 151560, Note_off_c, 0, 40, 0
1, 152040, Note_on_c, 0, 43, 96
1, 152160, Note_off_c, 0, 43, 0
1, 152220, Note_on_c, 0, 41, 96
1, 152340, Note_off_c, 0, 41, 0
1, 152460, Note_on_c, 0, 43, 96
1, 152580, Note_off_c, 0, 43, 0
1, 152640, Note_on_c, 0, 41, 96
1, 152760, Note_off_c, 0, 41, 0
1, 152880, Note_on_c, 0, 40, 96
1, 153000, Note_off_c, 0, 40, 0
1, 153000, Note_on_c, 0, 40, 96
1, 153120, Note_off_c, 0, 40, 0
1, 153120, Note_on_c, 0, 40, 96
1, 153240, Note_off_c, 0, 40, 0
1, 153720, Note_on_c, 0, 43, 96
1, 153840, Note_off_c, 0, 43, 0
1, 153900, Note_on_c, 0, 41, 96
1, 154020, Note_off_c, 0, 41, 0
1, 154140, Note_on_c, 0, 43, 96
1, 154260, Note_off_c, 0, 43, 0
1, 154320, Note_on_c, 0, 41, 96
1, 154440, Note_off_c, 0, 41, 0
1, 154500, Note_on_c, 0, 43, 96
1, 154620, Note_off_c, 0, 43, 0
1, 154680, Note_on_c, 0, 41, 96
1, 154800, Note_off_c, 0, 41, 0
1, 154920, Note_on_c, 0, 43, 96
1, 155040, Note_off_c, 0, 43, 0
1, 155100, Note_on_c, 0, 41, 96
1, 155220, Note_off_c, 0, 41, 0
1, 155340, Note_on_c, 0, 43, 96
1, 155460, Note_off_c, 0, 43, 0
1, 155520, Note_on_c, 0, 41, 96
1, 155640, Note_off_c, 0, 41, 0
1, 155760, Note_on_c, 0, 43, 96
1, 155880, Note_off_c, 0, 43, 0
1, 155940, Note_on_c, 0, 41, 96
1, 156060, Note_off_c, 0, 41, 0
1, 156120, Note_on_c, 0, 43, 96
1, 156240, Note_off_c, 0, 43, 0
1, 156300, Note_on_c, 0, 41, 96
1, 156420, Note_off_c, 0, 41, 0
1, 156540, Note_on_c, 0, 43, 96
1, 156660, Note_off_c, 0, 43, 0
1, 156720, Note_on_c, 0, 41, 96
1, 156840, Note_off_c, 0, 41, 0
1, 156900, Note_on_c, 0, 43, 96
1, 157020, Note_off_c, 0, 43, 0
1, 157080, Note_on_c, 0, 41, 96
1, 157200, Note_off_c, 0, 41, 0
1, 157320, Note_on_c, 0, 43, 96
1, 157440, Note_off_c, 0, 43, 0
1, 157500, Note_on_c, 0, 41, 96
1, 157620, Note_off_c, 0, 41, 0
1, 157680, Note_on_c, 0, 43, 96
1, 157800, Note_off_c, 0, 43, 0
1, 157860, Note_on_c, 0, 41, 96
1, 157980, Note_off_c, 0, 41, 0
1, 158100, Note_on_c, 0, 43, 96
1, 158220, Note_off_c, 0, 43, 0
1, 158280, Note_on_c, 0, 41, 96
1, 158400, Note_off_c, 0, 41, 0
1, 158520, Note_on_c, 0, 43, 96
1, 158640, Note_off_c, 0, 43, 0
1, 158700, Note_on_c, 0, 41, 96
1, 158820, Note_off_c, 0, 41, 0
1, 158940, Note_on_c, 0, 43, 96
1, 159060, Note_off_c, 0, 43, 0
1, 159120, Note_on_c, 0, 41, 96
1, 159240, Note_off_c, 0, 41, 0
1, 159300, Note_on_c, 0, 43, 96
1, 159420, Note_off_c, 0, 43, 0
1, 159480, Note_on_c, 0, 41, 96
1, 159600, Note_off_c, 0, 41, 0
1, 159720, Note_on_c, 0, 43, 96
1, 159840, Note_off_c, 0, 43, 0
1, 159900, Note_on_c, 0, 41, 96
1, 160020, Note_off_c, 0, 41, 0
1, 160140, Note_on_c, 0, 43, 96
1, 160260, Note_off_c, 0, 43, 0
1, 160320, Note_on_c, 0, 41, 96
1, 160440, Note_off_c, 0, 41, 0
1, 160560, Note_on_c, 0, 43, 96
1, 160680, Note_off_c, 0, 43, 0
1, 160740, Note_on_c, 0, 41, 96
1, 160860, Note_off_c, 0, 41, 0
1, 160920, Note_on_c, 0, 43, 96
1, 161040, Note_off_c, 0, 43, 0
1, 161100, Note_on_c, 0, 41, 96
1, 161220, Note_off_c, 0, 41, 0
1, 161340, Note_on_c, 0, 43, 96
1, 161460, Note_off_c, 0, 43, 0
1, 161520, Note_on_c, 0, 41, 96
1, 161640, Note_off_c, 0, 41, 0
1, 161760, Note_on_c, 0, 43, 96
1, 161880, Note_off_c, 0, 43, 0
1, 161940, Note_on_c, 0, 41, 96
1, 162060, Note_off_c, 0, 41, 0
1, 162180, Note_on_c, 0, 43, 96
1, 162300, Note_off_c, 0, 43, 0
1, 162360, Note_on_c, 0, 41, 96
1, 162480, Note_off_c, 0, 41, 0
1, 162540, Note_on_c, 0, 43, 96
1, 162660, Note_off_c, 0, 43, 0
1, 162720, Note_on_c, 0, 41, 96
1, 162840, Note_off_c, 0, 41, 0
1, 162960, Note_on_c, 0, 43, 96
1, 163080, Note_off_c, 0, 43, 0
1, 163140, Note_on_c, 0, 41, 96
1, 163260, Note_off_c, 0, 41, 0
1, 163320, Note_on_c, 0, 43, 96
1, 163440, Note_off_c, 0, 43, 0
1, 163500, Note_on_c, 0, 41, 96
1, 163620, Note_off_c, 0, 41, 0
1, 163740, Note_on_c, 0, 43, 96
1, 163860, Note_off_c, 0, 43, 0
1, 163920, Note_on_c, 0, 41, 96
1, 164040, Note_off_c, 0, 41, 0
1, 164100, Note_on_c, 0, 43, 96
1, 164220, Note_off_c, 0, 43, 0
1, 164280, Note_on_c, 0, 41, 96
1, 164400, Note_off_c, 0, 41, 0
1, 164520, Note_on_c, 0, 43, 96
1, 164640, Note_off_c, 0, 43, 0
1, 164700, Note_on_c, 0, 41, 96
1, 164820, Note_off_c, 0, 41, 0
1, 164940, Note_on_c, 0, 43, 96
1, 165060, Note_off_c, 0, 43, 0
1, 165120, Note_on_c, 0, 41, 96
1, 165240, Note_off_c, 0, 41, 0
1, 165360, Note_on_c, 0, 43, 96
1, 165480, Note_off_c, 0, 43, 0
1, 165540, Note_on_c, 0, 41, 96
1, 165660, Note_off_c, 0, 41, 0
1, 165720, Note_on_c, 0, 43, 96
1, 165840, Note_off_c, 0, 43, 0
1, 165900, Note_on_c, 0, 41, 96
1, 166020, Note_off_c, 0, 41, 0
1, 166140, Note_on_c, 0, 43, 96
1, 166260, Note_off_c, 0, 43, 0
1, 166320, Note_on_c, 0, 41, 96
1, 166440, Note_off_c, 0, 41, 0
1, 166800, Note_on_c, 0, 53, 96
1, 166800, Note_on_c, 0, 55, 96
1, 166800, Note_on_c, 0, 57, 96
1, 166800, Note_on_c, 0, 52, 96
1, 166800, Note_on_c, 0, 50, 96
1, 166800, Note_on_c, 0, 48, 96
1, 166800, Note_on_c, 0, 59, 96
1, 166800, Note_on_c, 0, 51, 96
1, 166920, Note_off_c, 0, 53, 0
1, 166920, Note_off_c, 0, 55, 0
1, 166920, Note_off_c, 0, 57, 0
1, 166920, Note_off_c, 0, 52, 0
1, 166920, Note_off_c, 0, 50, 0
1, 166920, Note_off_c, 0, 48, 0
1, 166920, Note_off_c, 0, 59, 0
1, 166920, Note_off_c, 0, 51, 0
1, 167280, Note_on_c, 0, 42, 96
1, 167400, Note_off_c, 0, 42, 0
1, 167760, Note_on_c, 0, 53, 96
1, 167760, Note_on_c, 0, 55, 96
1, 167760, Note_on_c, 0, 57, 96
1, 167760, Note_on_c, 0, 50, 96
1, 167760, Note_on_c, 0, 48, 96
1, 167760, Note_on_c, 0, 59, 96
1, 167760, Note_on_c, 0, 54, 96
1, 167760, Note_on_c, 0, 51, 96
1, 167880, Note_off_c, 0, 53, 0
1, 167880, Note_off_c, 0, 55, 0
1, 167880, Note_off_c, 0, 57, 0
1, 167880, Note_off_c, 0, 50, 0
1, 167880, Note_off_c, 0, 48, 0
1, 167880, Note_off_c, 0, 59, 0
1, 167880, Note_off_c, 0, 54, 0
1, 167880, Note_off_c, 0, 51, 0
1, 168240, Note_on_c, 0, 40, 96
1, 168360, Note_off_c, 0, 40, 0
1, 168720, Note_on_c, 0, 53, 96
1, 168720, Note_on_c, 0, 57, 96
1, 168720, Note_on_c, 0, 52, 96
1, 168720, Note_on_c, 0, 50, 96
1, 168720, Note_on_c, 0, 48, 96
1, 168720, Note_on_c, 0, 59, 96
1, 168720, Note_on_c, 0, 54, 96
1, 168840, Note_off_c, 0, 53, 0
1, 168840, Note_off_c, 0, 57, 0
1, 168840, Note_off_c, 0, 52, 0
1, 168840, Note_off_c, 0, 50, 0
1, 168840, Note_off_c, 0, 48, 0
1, 168840, Note_off_c, 0, 59, 0
1, 168840, Note_off_c, 0, 54, 0
1, 169200, Note_on_c, 0, 39, 96
1, 169320, Note_off_c, 0, 39, 0
1, 169680, Note_on_c, 0, 53, 96
1, 169680, Note_on_c, 0, 57, 96
1, 169680, Note_on_c, 0, 52, 96
1, 169680, Note_on_c, 0, 50, 96
1, 169680, Note_on_c, 0, 48, 96
1, 169680, Note_on_c, 0, 59, 96
1, 169680, Note_on_c, 0, 54, 96
1, 169680, Note_on_c, 0, 51, 96
1, 169800, Note_off_c, 0, 53, 0
1, 169800, Note_off_c, 0, 57, 0
1, 169800, Note_off_c, 0, 52, 0
1, 169800, Note_off_c, 0, 50, 0
1, 169800, Note_off_c, 0, 48, 0
1, 169800, Note_off_c, 0, 59, 0
1, 169800, Note_off_c, 0, 54, 0
1, 169800, Note_off_c, 0, 51, 0
1, 170160, Note_on_c, 0, 43, 96
1, 170280, Note_off_c, 0, 43, 0
1, 170700, Note_on_c, 0, 41, 96
1, 170820, Note_off_c, 0, 41, 0
1, 170940, Note_on_c, 0, 43, 96
1, 171060, Note_off_c, 0, 43, 0
1, 171120, Note_on_c, 0, 41, 96
1, 171240, Note_off_c, 0, 41, 0
1, 171300, Note_on_c, 0, 43, 96
1, 171420, Note_off_c, 0, 43, 0
1, 171540, Note_on_c, 0, 45, 96
1, 171660, Note_off_c, 0, 45, 0
1, 171780, Note_on_c, 0, 47, 96
1, 171900, Note_off_c, 0, 47, 0
1, 171960, Note_on_c, 0, 47, 96
1, 172080, Note_off_c, 0, 47, 0
1, 172200, Note_on_c, 0, 47, 96
1, 172320, Note_off_c, 0, 47, 0
1, 172380, Note_on_c, 0, 47, 96
1, 172500, Note_off_c, 0, 47, 0
1, 172620, Note_on_c, 0, 47, 96
1, 172740, Note_off_c, 0, 47, 0
1, 172800, Note_on_c, 0, 47, 96
1, 172920, Note_off_c, 0, 47, 0
1, 172980, Note_on_c, 0, 47, 96
1, 173100, Note_off_c, 0, 47, 0
1, 173160, Note_on_c, 0, 47, 96
1, 173280, Note_off_c, 0, 47, 0
1, 173400, Note_on_c, 0, 47, 96
1, 173520, Note_off_c, 0, 47, 0
1, 173580, Note_on_c, 0, 41, 96
1, 173700, Note_off_c, 0, 41, 0
1, 173820, Note_on_c, 0, 47, 96
1, 173940, Note_off_c, 0, 47, 0
1, 173940, Note_on_c, 0, 41, 96
1, 174060, Note_off_c, 0, 41, 0
1, 174120, Note_on_c, 0, 42, 96
1, 174240, Note_off_c, 0, 42, 0
1, 174300, Note_on_c, 0, 42, 96
1, 174420, Note_off_c, 0, 42, 0
1, 174480, Note_on_c, 0, 42, 96
1, 174600, Note_off_c, 0, 42, 0
1, 174660, Note_on_c, 0, 42, 96
1, 174780, Note_off_c, 0, 42, 0
1, 174840, Note_on_c, 0, 47, 96
1, 174960, Note_off_c, 0, 47, 0
1, 175020, Note_on_c, 0, 47, 96
1, 175140, Note_off_c, 0, 47, 0
1, 175260, Note_on_c, 0, 47, 96
1, 175380, Note_off_c, 0, 47, 0
1, 175440, Note_on_c, 0, 47, 96
1, 175560, Note_off_c, 0, 47, 0
1, 175680, Note_on_c, 0, 47, 96
1, 175800, Note_off_c, 0, 47, 0
1, 175860, Note_on_c, 0, 47, 96
1, 175980, Note_off_c, 0, 47, 0
1, 176100, Note_on_c, 0, 42, 96
1, 176220, Note_off_c, 0, 42, 0
1, 176280, Note_on_c, 0, 42, 96
1, 176400, Note_off_c, 0, 42, 0
1, 176520, Note_on_c, 0, 42, 96
1, 176640, Note_off_c, 0, 42, 0
1, 176880, Note_on_c, 0, 45, 96
1, 177000, Note_off_c, 0, 45, 0
1, 177120, Note_on_c, 0, 47, 96
1, 177240, Note_off_c, 0, 47, 0
1, 177300, Note_on_c, 0, 45, 96
1, 177420, Note_off_c, 0, 45, 0
1, 177480, Note_on_c, 0, 47, 96
1, 177600, Note_off_c, 0, 47, 0
1, 177660, Note_on_c, 0, 36, 96
1, 177780, Note_off_c, 0, 36, 0
1, 177900, Note_on_c, 0, 36, 96
1, 178020, Note_off_c, 0, 36, 0
1, 178080, Note_on_c, 0, 36, 96
1, 178200, Note_off_c, 0, 36, 0
1, 178320, Note_on_c, 0, 36, 96
1, 178440, Note_off_c, 0, 36, 0
1, 178500, Note_on_c, 0, 36, 96
1, 178620, Note_off_c, 0, 36, 0
1, 178680, Note_on_c, 0, 43, 96
1, 178800, Note_off_c, 0, 43, 0
1, 178860, Note_on_c, 0, 43, 96
1, 178980, Note_off_c, 0, 43, 0
1, 179040, Note_on_c, 0, 43, 96
1, 179160, Note_off_c, 0, 43, 0
1, 179220, Note_on_c, 0, 43, 96
1, 179340, Note_off_c, 0, 43, 0
1, 179520, Note_on_c, 0, 40, 96
1, 179640, Note_off_c, 0, 40, 0
1, 179700, Note_on_c, 0, 40, 96
1, 179820, Note_off_c, 0, 40, 0
1, 179940, Note_on_c, 0, 40, 96
1, 180060, Note_off_c, 0, 40, 0
1, 180120, Note_on_c, 0, 40, 96
1, 180240, Note_off_c, 0, 40, 0
1, 180360, Note_on_c, 0, 47, 96
1, 180480, Note_off_c, 0, 47, 0
1, 180540, Note_on_c, 0, 47, 96
1, 180660, Note_off_c, 0, 47, 0
1, 180720, Note_on_c, 0, 47, 96
1, 180840, Note_off_c, 0, 47, 0
1, 180900, Note_on_c, 0, 47, 96
1, 181020, Note_off_c, 0, 47, 0
1, 181080, Note_on_c, 0, 38, 96
1, 181200, Note_off_c, 0, 38, 0
1, 181260, Note_on_c, 0, 38, 96
1, 181380, Note_off_c, 0, 38, 0
1, 181500, Note_on_c, 0, 38, 96
1, 181620, Note_off_c, 0, 38, 0
1, 181680, Note_on_c, 0, 38, 96
1, 181800, Note_off_c, 0, 38, 0
1, 181920, Note_on_c, 0, 38, 96
1, 182040, Note_off_c, 0, 38, 0
1, 182160, Note_on_c, 0, 43, 96
1, 182280, Note_off_c, 0, 43, 0
1, 182340, Note_on_c, 0, 43, 96
1, 182460, Note_off_c, 0, 43, 0
1, 182520, Note_on_c, 0, 43, 96
1, 182640, Note_off_c, 0, 43, 0
1, 182760, Note_on_c, 0, 43, 96
1, 182880, Note_off_c, 0, 43, 0
1, 183120, Note_on_c, 0, 36, 96
1, 183240, Note_off_c, 0, 36, 0
1, 183360, Note_on_c, 0, 36, 96
1, 183480, Note_off_c, 0, 36, 0
1, 183540, Note_on_c, 0, 41, 96
1, 183660, Note_off_c, 0, 41, 0
1, 183720, Note_on_c, 0, 41, 96
1, 183840, Note_off_c, 0, 41, 0
1, 183900, Note_on_c, 0, 41, 96
1, 184020, Note_off_c, 0, 41, 0
1, 184140, Note_on_c, 0, 41, 96
1, 184260, Note_off_c, 0, 41, 0
1, 184320, Note_on_c, 0, 41, 96
1, 184440, Note_off_c, 0, 41, 0
1, 184560, Note_on_c, 0, 41, 96
1, 184680, Note_off_c, 0, 41, 0
1, 184740, Note_on_c, 0, 36, 96
1, 184860, Note_off_c, 0, 36, 0
1, 184980, Note_on_c, 0, 36, 96
1, 185100, Note_off_c, 0, 36, 0
1, 185160, Note_on_c, 0, 36, 96
1, 185280, Note_off_c, 0, 36, 0
1, 185340, Note_on_c, 0, 36, 96
1, 185460, Note_off_c, 0, 36, 0
1, 185520, Note_on_c, 0, 36, 96
1, 185640, Note_off_c, 0, 36, 0
1, 185880, Note_on_c, 0, 43, 96
1, 186000, Note_off_c, 0, 43, 0
1, 186060, Note_on_c, 0, 43, 96
1, 186180, Note_off_c, 0, 43, 0
1, 186300, Note_on_c, 0, 43, 96
1, 186420, Note_off_c, 0, 43, 0
1, 186480, Note_on_c, 0, 43, 96
1, 186600, Note_off_c, 0, 43, 0
1, 186720, Note_on_c, 0, 43, 96
1, 186840, Note_off_c, 0, 43, 0
1, 186900, Note_on_c, 0, 43, 96
1, 187020, Note_off_c, 0, 43, 0
1, 187080, Note_on_c, 0, 43, 96
1, 187200, Note_off_c, 0, 43, 0
1, 187260, Note_on_c, 0, 43, 96
1, 187380, Note_off_c, 0, 43, 0
1, 187380, Note_on_c, 0, 36, 96
1, 187500, Note_off_c, 0, 36, 0
1, 187560, Note_on_c, 0, 36, 96
1, 187680, Note_off_c, 0, 36, 0
1, 187800, Note_on_c, 0, 36, 96
1, 187920, Note_off_c, 0, 36, 0
1, 187980, Note_on_c, 0, 36, 96
1, 188100, Note_off_c, 0, 36, 0
1, 188220, Note_on_c, 0, 36, 96
1, 188340, Note_off_c, 0, 36, 0
1, 188400, Note_on_c, 0, 36, 96
1, 188520, Note_off_c, 0, 36, 0
1, 188580, Note_on_c, 0, 36, 96
1, 188700, Note_off_c, 0, 36, 0
1, 188760, Note_on_c, 0, 36, 96
1, 188880, Note_off_c, 0, 36, 0
1, 189000, Note_on_c, 0, 36, 96
1, 189120, Note_off_c, 0, 36, 0
1, 189480, Note_on_c, 0, 43, 96
1, 189600, Note_off_c, 0, 43, 0
1, 189660, Note_on_c, 0, 41, 96
1, 189780, Note_off_c, 0, 41, 0
1, 189840, Note_on_c, 0, 43, 96
1, 189960, Note_off_c, 0, 43, 0
1, 190080, Note_on_c, 0, 45, 96
1, 190200, Note_off_c, 0, 45, 0
1, 190320, Note_on_c, 0, 47, 96
1, 190440, Note_off_c, 0, 47, 0
1, 190500, Note_on_c, 0, 47, 96
1, 190620, Note_off_c, 0, 47, 0
1, 190740, Note_on_c, 0, 47, 96
1, 190860, Note_off_c, 0, 47, 0
1, 190920, Note_on_c, 0, 47, 96
1, 191040, Note_off_c, 0, 47, 0
1, 191160, Note_on_c, 0, 47, 96
1, 191280, Note_off_c, 0, 47, 0
1, 191340, Note_on_c, 0, 47, 96
1, 191460, Note_off_c, 0, 47, 0
1, 191520, Note_on_c, 0, 47, 96
1, 191640, Note_off_c, 0, 47, 0
1, 191700, Note_on_c, 0, 47, 96
1, 191820, Note_off_c, 0, 47, 0
1, 191940, Note_on_c, 0, 47, 96
1, 192060, Note_off_c, 0, 47, 0
1, 192120, Note_on_c, 0, 41, 96
1, 192240, Note_off_c, 0, 41, 0
1, 192360, Note_on_c, 0, 47, 96
1, 192480, Note_off_c, 0, 47, 0
1, 192480, Note_on_c, 0, 41, 96
1, 192600, Note_off_c, 0, 41, 0
1, 192660, Note_on_c, 0, 42, 96
1, 192780, Note_off_c, 0, 42, 0
1, 192840, Note_on_c, 0, 42, 96
1, 192960, Note_off_c, 0, 42, 0
1, 193020, Note_on_c, 0, 42, 96
1, 193140, Note_off_c, 0, 42, 0
1, 193200, Note_on_c, 0, 42, 96
1, 193320, Note_off_c, 0, 42, 0
1, 193380, Note_on_c, 0, 47, 96
1, 193500, Note_off_c, 0, 47, 0
1, 193560, Note_on_c, 0, 47, 96
1, 193680, Note_off_c, 0, 47, 0
1, 193800, Note_on_c, 0, 47, 96
1, 193920, Note_off_c, 0, 47, 0
1, 193980, Note_on_c, 0, 47, 96
1, 194100, Note_off_c, 0, 47, 0
1, 194220, Note_on_c, 0, 47, 96
1, 194340, Note_off_c, 0, 47, 0
1, 194400, Note_on_c, 0, 47, 96
1, 194520, Note_off_c, 0, 47, 0
1, 194640, Note_on_c, 0, 42, 96
1, 194760, Note_off_c, 0, 42, 0
1, 194820, Note_on_c, 0, 42, 96
1, 194940, Note_off_c, 0, 42, 0
1, 195060, Note_on_c, 0, 42, 96
1, 195180, Note_off_c, 0, 42, 0
1, 195420, Note_on_c, 0, 45, 96
1, 195540, Note_off_c, 0, 45, 0
1, 195660, Note_on_c, 0, 47, 96
1, 195780, Note_off_c, 0, 47, 0
1, 195840, Note_on_c, 0, 45, 96
1, 195960, Note_off_c, 0, 45, 0
1, 196020, Note_on_c, 0, 47, 96
1, 196140, Note_off_c, 0, 47, 0
1, 196200, Note_on_c, 0, 36, 96
1, 196320, Note_off_c, 0, 36, 0
1, 196440, Note_on_c, 0, 36, 96
1, 196560, Note_off_c, 0, 36, 0
1, 196620, Note_on_c, 0, 36, 96
1, 196740, Note_off_c, 0, 36, 0
1, 196860, Note_on_c, 0, 36, 96
1, 196980, Note_off_c, 0, 36, 0
1, 197040, Note_on_c, 0, 36, 96
1, 197160, Note_off_c, 0, 36, 0
1, 197220, Note_on_c, 0, 43, 96
1, 197340, Note_off_c, 0, 43, 0
1, 197400, Note_on_c, 0, 43, 96
1, 197520, Note_off_c, 0, 43, 0
1, 197580, Note_on_c, 0, 43, 96
1, 197700, Note_off_c, 0, 43, 0
1, 197760, Note_on_c, 0, 43, 96
1, 197880, Note_off_c, 0, 43, 0
1, 198060, Note_on_c, 0, 40, 96
1, 198180, Note_off_c, 0, 40, 0
1, 198240, Note_on_c, 0, 40, 96
1, 198360, Note_off_c, 0, 40, 0
1, 198480, Note_on_c, 0, 40, 96
1, 198600, Note_off_c, 0, 40, 0
1, 198660, Note_on_c, 0, 40, 96
1, 198780, Note_off_c, 0, 40, 0
1, 198900, Note_on_c, 0, 47, 96
1, 199020, Note_off_c, 0, 47, 0
1, 199080, Note_on_c, 0, 47, 96
1, 199200, Note_off_c, 0, 47, 0
1, 199260, Note_on_c, 0, 47, 96
1, 199380, Note_off_c, 0, 47, 0
1, 199440, Note_on_c, 0, 47, 96
1, 199560, Note_off_c, 0, 47, 0
1, 199620, Note_on_c, 0, 38, 96
1, 199740, Note_off_c, 0, 38, 0
1, 199800, Note_on_c, 0, 38, 96
1, 199920, Note_off_c, 0, 38, 0
1, 200040, Note_on_c, 0, 38, 96
1, 200160, Note_off_c, 0, 38, 0
1, 200220, Note_on_c, 0, 38, 96
1, 200340, Note_off_c, 0, 38, 0
1, 200460, Note_on_c, 0, 38, 96
1, 200580, Note_off_c, 0, 38, 0
1, 200700, Note_on_c, 0, 43, 96
1, 200820, Note_off_c, 0, 43, 0
1, 200880, Note_on_c, 0, 43, 96
1, 201000, Note_off_c, 0, 43, 0
1, 201060, Note_on_c, 0, 43, 96
1, 201180, Note_off_c, 0, 43, 0
1, 201300, Note_on_c, 0, 43, 96
1, 201420, Note_off_c, 0, 43, 0
1, 201660, Note_on_c, 0, 36, 96
1, 201780, Note_off_c, 0, 36, 0
1, 201900, Note_on_c, 0, 36, 96
1, 202020, Note_off_c, 0, 36, 0
1, 202080, Note_on_c, 0, 41, 96
1, 202200, Note_off_c, 0, 41, 0
1, 202260, Note_on_c, 0, 41, 96
1, 202380, Note_off_c, 0, 41, 0
1, 202440, Note_on_c, 0, 41, 96
1, 202560, Note_off_c, 0, 41, 0
1, 202680, Note_on_c, 0, 41, 96
1, 202800, Note_off_c, 0, 41, 0
1, 202860, Note_on_c, 0, 41, 96
1, 202980, Note_off_c, 0, 41, 0
1, 203100, Note_on_c, 0, 41, 96
1, 203220, Note_off_c, 0, 41, 0
1, 203280, Note_on_c, 0, 36, 96
1, 203400, Note_off_c, 0, 36, 0
1, 203520, Note_on_c, 0, 36, 96
1, 203640, Note_off_c, 0, 36, 0
1, 203700, Note_on_c, 0, 36, 96
1, 203820, Note_off_c, 0, 36, 0
1, 203880, Note_on_c, 0, 36, 96
1, 204000, Note_off_c, 0, 36, 0
1, 204060, Note_on_c, 0, 36, 96
1, 204180, Note_off_c, 0, 36, 0
1, 204420, Note_on_c, 0, 43, 96
1, 204540, Note_off_c, 0, 43, 0
1, 204600, Note_on_c, 0, 43, 96
1, 204720, Note_off_c, 0, 43, 0
1, 204840, Note_on_c, 0, 43, 96
1, 204960, Note_off_c, 0, 43, 0
1, 205020, Note_on_c, 0, 43, 96
1, 205140, Note_off_c, 0, 43, 0
1, 205260, Note_on_c, 0, 43, 96
1, 205380, Note_off_c, 0, 43, 0
1, 205440, Note_on_c, 0, 43, 96
1, 205560, Note_off_c, 0, 43, 0
1, 205620, Note_on_c, 0, 43, 96
1, 205740, Note_off_c, 0, 43, 0
1, 205800, Note_on_c, 0, 43, 96
1, 205920, Note_off_c, 0, 43, 0
1, 205920, Note_on_c, 0, 36, 96
1, 206040, Note_off_c, 0, 36, 0
1, 206100, Note_on_c, 0, 36, 96
1, 206220, Note_off_c, 0, 36, 0
1, 206340, Note_on_c, 0, 36, 96
1, 206460, Note_off_c, 0, 36, 0
1, 206520, Note_on_c, 0, 36, 96
1, 206640, Note_off_c, 0, 36, 0
1, 206760, Note_on_c, 0, 36, 96
1, 206880, Note_off_c, 0, 36, 0
1, 206940, Note_on_c, 0, 36, 96
1, 207060, Note_off_c, 0, 36, 0
1, 207120, Note_on_c, 0, 36, 96
1, 207240, Note_off_c, 0, 36, 0
1, 207300, Note_on_c, 0, 36, 96
1, 207420, Note_off_c, 0, 36, 0
1, 207540, Note_on_c, 0, 36, 96
1, 207660, Note_off_c, 0, 36, 0
1, 208080, Note_on_c, 0, 42, 96
1, 208200, Note_off_c, 0, 42, 0
1, 208260, Note_on_c, 0, 42, 96
1, 208380, Note_off_c, 0, 42, 0
1, 208440, Note_on_c, 0, 47, 96
1, 208560, Note_off_c, 0, 47, 0
1, 208620, Note_on_c, 0, 47, 96
1, 208740, Note_off_c, 0, 47, 0
1, 208860, Note_on_c, 0, 47, 96
1, 208980, Note_off_c, 0, 47, 0
1, 209040, Note_on_c, 0, 47, 96
1, 209160, Note_off_c, 0, 47, 0
1, 209280, Note_on_c, 0, 47, 96
1, 209400, Note_off_c, 0, 47, 0
1, 209460, Note_on_c, 0, 47, 96
1, 209580, Note_off_c, 0, 47, 0
1, 209700, Note_on_c, 0, 42, 96
1, 209820, Note_off_c, 0, 42, 0
1, 209880, Note_on_c, 0, 42, 96
1, 210000, Note_off_c, 0, 42, 0
1, 210120, Note_on_c, 0, 42, 96
1, 210240, Note_off_c, 0, 42, 0
1, 210480, Note_on_c, 0, 45, 96
1, 210600, Note_off_c, 0, 45, 0
1, 210720, Note_on_c, 0, 47, 96
1, 210840, Note_off_c, 0, 47, 0
1, 210900, Note_on_c, 0, 45, 96
1, 211020, Note_off_c, 0, 45, 0
1, 211080, Note_on_c, 0, 47, 96
1, 211200, Note_off_c, 0, 47, 0
1, 211260, Note_on_c, 0, 36, 96
1, 211380, Note_off_c, 0, 36, 0
1, 211500, Note_on_c, 0, 36, 96
1, 211620, Note_off_c, 0, 36, 0
1, 211680, Note_on_c, 0, 36, 96
1, 211800, Note_off_c, 0, 36, 0
1, 211920, Note_on_c, 0, 36, 96
1, 212040, Note_off_c, 0, 36, 0
1, 212100, Note_on_c, 0, 36, 96
1, 212220, Note_off_c, 0, 36, 0
1, 212280, Note_on_c, 0, 43, 96
1, 212400, Note_off_c, 0, 43, 0
1, 212460, Note_on_c, 0, 43, 96
1, 212580, Note_off_c, 0, 43, 0
1, 212640, Note_on_c, 0, 43, 96
1, 212760, Note_off_c, 0, 43, 0
1, 212820, Note_on_c, 0, 43, 96
1, 212940, Note_off_c, 0, 43, 0
1, 213120, Note_on_c, 0, 40, 96
1, 213240, Note_off_c, 0, 40, 0
1, 213300, Note_on_c, 0, 40, 96
1, 213420, Note_off_c, 0, 40, 0
1, 213540, Note_on_c, 0, 40, 96
1, 213660, Note_off_c, 0, 40, 0
1, 213720, Note_on_c, 0, 40, 96
1, 213840, Note_off_c, 0, 40, 0
1, 213960, Note_on_c, 0, 47, 96
1, 214080, Note_off_c, 0, 47, 0
1, 214140, Note_on_c, 0, 47, 96
1, 214260, Note_off_c, 0, 47, 0
1, 214320, Note_on_c, 0, 47, 96
1, 214440, Note_off_c, 0, 47, 0
1, 214500, Note_on_c, 0, 47, 96
1, 214620, Note_off_c, 0, 47, 0
1, 214680, Note_on_c, 0, 38, 96
1, 214800, Note_off_c, 0, 38, 0
1, 214860, Note_on_c, 0, 38, 96
1, 214980, Note_off_c, 0, 38, 0
1, 215100, Note_on_c, 0, 38, 96
1, 215220, Note_off_c, 0, 38, 0
1, 215280, Note_on_c, 0, 38, 96
1, 215400, Note_off_c, 0, 38, 0
1, 215520, Note_on_c, 0, 38, 96
1, 215640, Note_off_c, 0, 38, 0
1, 215760, Note_on_c, 0, 43, 96
1, 215880, Note_off_c, 0, 43, 0
1, 215940, Note_on_c, 0, 43, 96
1, 216060, Note_off_c, 0, 43, 0
1, 216120, Note_on_c, 0, 43, 96
1, 216240, Note_off_c, 0, 43, 0
1, 216360, Note_on_c, 0, 43, 96
1, 216480, Note_off_c, 0, 43, 0
1, 216720, Note_on_c, 0, 36, 96
1, 216840, Note_off_c, 0, 36, 0
1, 216960, Note_on_c, 0, 36, 96
1, 217080, Note_off_c, 0, 36, 0
1, 217140, Note_on_c, 0, 41, 96
1, 217260, Note_off_c, 0, 41, 0
1, 217320, Note_on_c, 0, 41, 96
1, 217440, Note_off_c, 0, 41, 0
1, 217500, Note_on_c, 0, 41, 96
1, 217620, Note_off_c, 0, 41, 0
1, 217740, Note_on_c, 0, 41, 96
1, 217860, Note_off_c, 0, 41, 0
1, 217920, Note_on_c, 0, 41, 96
1, 218040, Note_off_c, 0, 41, 0
1, 218160, Note_on_c, 0, 41, 96
1, 218280, Note_off_c, 0, 41, 0
1, 218340, Note_on_c, 0, 36, 96
1, 218460, Note_off_c, 0, 36, 0
1, 218580, Note_on_c, 0, 36, 96
1, 218700, Note_off_c, 0, 36, 0
1, 218760, Note_on_c, 0, 36, 96
1, 218880, Note_off_c, 0, 36, 0
1, 218940, Note_on_c, 0, 36, 96
1, 219060, Note_off_c, 0, 36, 0
1, 219120, Note_on_c, 0, 36, 96
1, 219240, Note_off_c, 0, 36, 0
1, 219480, Note_on_c, 0, 43, 96
1, 219600, Note_off_c, 0, 43, 0
1, 219660, Note_on_c, 0, 43, 96
1, 219780, Note_off_c, 0, 43, 0
1, 219900, Note_on_c, 0, 43, 96
1, 220020, Note_off_c, 0, 43, 0
1, 220080, Note_on_c, 0, 43, 96
1, 220200, Note_off_c, 0, 43, 0
1, 220320, Note_on_c, 0, 43, 96
1, 220440, Note_off_c, 0, 43, 0
1, 220500, Note_on_c, 0, 43, 96
1, 220620, Note_off_c, 0, 43, 0
1, 220680, Note_on_c, 0, 43, 96
1, 220800, Note_off_c, 0, 43, 0
1, 220860, Note_on_c, 0, 43, 96
1, 220980, Note_off_c, 0, 43, 0
1, 220980, Note_on_c, 0, 36, 96
1, 221100, Note_off_c, 0, 36, 0
1, 221160, Note_on_c, 0, 36, 96
1, 221280, Note_off_c, 0, 36, 0
1, 221400, Note_on_c, 0, 36, 96
1, 221520, Note_off_c, 0, 36, 0
1, 221580, Note_on_c, 0, 36, 96
1, 221700, Note_off_c, 0, 36, 0
1, 221820, Note_on_c, 0, 36, 96
1, 221940, Note_off_c, 0, 36, 0
1, 222000, Note_on_c, 0, 36, 96
1, 222120, Note_off_c, 0, 36, 0
1, 222180, Note_on_c, 0, 36, 96
1, 222300, Note_off_c, 0, 36, 0
1, 222360, Note_on_c, 0, 36, 96
1, 222480, Note_off_c, 0, 36, 0
1, 222600, Note_on_c, 0, 36, 96
1, 222720, Note_off_c, 0, 36, 0
1, 223620, Note_on_c, 0, 36, 96
1, 223740, Note_off_c, 0, 36, 0
1, 223860, Note_on_c, 0, 36, 96
1, 223980, Note_off_c, 0, 36, 0
1, 224040, Note_on_c, 0, 41, 96
1, 224160, Note_off_c, 0, 41, 0
1, 224220, Note_on_c, 0, 41, 96
1, 224340, Note_off_c, 0, 41, 0
1, 224400, Note_on_c, 0, 41, 96
1, 224520, Note_off_c, 0, 41, 0
1, 224640, Note_on_c, 0, 41, 96
1, 224760, Note_off_c, 0, 41, 0
1, 224820, Note_on_c, 0, 41, 96
1, 224940, Note_off_c, 0, 41, 0
1, 225060, Note_on_c, 0, 41, 96
1, 225180, Note_off_c, 0, 41, 0
1, 225240, Note_on_c, 0, 36, 96
1, 225360, Note_off_c, 0, 36, 0
1, 225480, Note_on_c, 0, 36, 96
1, 225600, Note_off_c, 0, 36, 0
1, 225660, Note_on_c, 0, 36, 96
1, 225780, Note_off_c, 0, 36, 0
1, 225840, Note_on_c, 0, 36, 96
1, 225960, Note_off_c, 0, 36, 0
1, 226020, Note_on_c, 0, 36, 96
1, 226140, Note_off_c, 0, 36, 0
1, 226380, Note_on_c, 0, 43, 96
1, 226500, Note_off_c, 0, 43, 0
1, 226560, Note_on_c, 0, 43, 96
1, 226680, Note_off_c, 0, 43, 0
1, 226800, Note_on_c, 0, 43, 96
1, 226920, Note_off_c, 0, 43, 0
1, 226980, Note_on_c, 0, 43, 96
1, 227100, Note_off_c, 0, 43, 0
1, 227220, Note_on_c, 0, 43, 96
1, 227340, Note_off_c, 0, 43, 0
1, 227400, Note_on_c, 0, 43, 96
1, 227520, Note_off_c, 0, 43, 0
1, 227580, Note_on_c, 0, 43, 96
1, 227700, Note_off_c, 0, 43, 0
1, 227760, Note_on_c, 0, 43, 96
1, 227880, Note_off_c, 0, 43, 0
1, 227880, Note_on_c, 0, 36, 96
1, 228000, Note_off_c, 0, 36, 0
1, 228060, Note_on_c, 0, 36, 96
1, 228180, Note_off_c, 0, 36, 0
1, 228300, Note_on_c, 0, 36, 96
1, 228420, Note_off_c, 0, 36, 0
1, 228480, Note_on_c, 0, 36, 96
1, 228600, Note_off_c, 0, 36, 0
1, 228720, Note_on_c, 0, 36, 96
1, 228840, Note_off_c, 0, 36, 0
1, 228900, Note_on_c, 0, 36, 96
1, 229020, Note_off_c, 0, 36, 0
1, 229080, Note_on_c, 0, 36, 96
1, 229200, Note_off_c, 0, 36, 0
1, 229260, Note_on_c, 0, 36, 96
1, 229380, Note_off_c, 0, 36, 0
1, 229500, Note_on_c, 0, 36, 96
1, 229620, Note_off_c, 0, 36, 0
1, 230040, Note_on_c, 0, 42, 96
1, 230160, Note_off_c, 0, 42, 0
1, 230220, Note_on_c, 0, 42, 96
1, 230340, Note_off_c, 0, 42, 0
1, 230400, Note_on_c, 0, 47, 96
1, 230520, Note_off_c, 0, 47, 0
1, 230580, Note_on_c, 0, 47, 96
1, 230700, Note_off_c, 0, 47, 0
1, 230820, Note_on_c, 0, 47, 96
1, 230940, Note_off_c, 0, 47, 0
1, 231000, Note_on_c, 0, 47, 96
1, 231120, Note_off_c, 0, 47, 0
1, 231240, Note_on_c, 0, 47, 96
1, 231360, Note_off_c, 0, 47, 0
1, 231420, Note_on_c, 0, 47, 96
1, 231540, Note_off_c, 0, 47, 0
1, 231660, Note_on_c, 0, 42, 96
1, 231780, Note_off_c, 0, 42, 0
1, 231840, Note_on_c, 0, 42, 96
1, 231960, Note_off_c, 0, 42, 0
1, 232080, Note_on_c, 0, 42, 96
1, 232200, Note_off_c, 0, 42, 0
1, 232440, Note_on_c, 0, 45, 96
1, 232560, Note_off_c, 0, 45, 0
1, 232680, Note_on_c, 0, 47, 96
1, 232800, Note_off_c, 0, 47, 0
1, 232860, Note_on_c, 0, 45, 96
1, 232980, Note_off_c, 0, 45, 0
1, 254880, Note_on_c, 0, 41, 96
1, 255000, Note_off_c, 0, 41, 0
1, 255000, Note_on_c, 0, 43, 96
1, 255120, Note_off_c, 0, 43, 0
1, 255120, Note_on_c, 0, 41, 96
1, 255240, Note_off_c, 0, 41, 0
1, 255240, Note_on_c, 0, 43, 96
1, 255360, Note_off_c, 0, 43, 0
1, 255360, Note_on_c, 0, 41, 96
1, 255480, Note_off_c, 0, 41, 0
1, 255480, Note_on_c, 0, 43, 96
1, 255600, Note_off_c, 0, 43, 0
1, 255600, Note_on_c, 0, 41, 96
1, 255720, Note_off_c, 0, 41, 0
1, 255720, Note_on_c, 0, 40, 96
1, 255960, Note_off_c, 0, 40, 0
1, 256200, Note_on_c, 0, 41, 98
1, 256320, Note_off_c, 0, 41, 0
1, 256320, Note_on_c, 0, 41, 98
1, 256440, Note_off_c, 0, 41, 0
1, 256440, Note_on_c, 0, 42, 98
1, 256560, Note_off_c, 0, 42, 0
1, 256560, Note_on_c, 0, 42, 98
1, 256680, Note_off_c, 0, 42, 0
1, 256680, Note_on_c, 0, 42, 98
1, 256800, Note_off_c, 0, 42, 0
1, 256800, Note_on_c, 0, 53, 98
1, 256800, Note_on_c, 0, 55, 98
1, 256800, Note_on_c, 0, 57, 98
1, 256800, Note_on_c, 0, 52, 98
1, 256800, Note_on_c, 0, 50, 98
1, 256800, Note_on_c, 0, 48, 98
1, 256800, Note_on_c, 0, 59, 98
1, 256800, Note_on_c, 0, 51, 98
1, 256920, Note_off_c, 0, 53, 0
1, 256920, Note_off_c, 0, 55, 0
1, 256920, Note_off_c, 0, 57, 0
1, 256920, Note_off_c, 0, 52, 0
1, 256920, Note_off_c, 0, 50, 0
1, 256920, Note_off_c, 0, 48, 0
1, 256920, Note_off_c, 0, 59, 0
1, 256920, Note_off_c, 0, 51, 0
1, 256920, End_track
0, 0, End_of_file
